solid OpenSCAD_Model
  facet normal 0 1 -0
    outer loop
      vertex 1.73099 -2.99817 0
      vertex -1.73099 -2.99817 2.5
      vertex 1.73099 -2.99817 2.5
    endloop
  endfacet
  facet normal 0 1 0
    outer loop
      vertex -1.73099 -2.99817 2.5
      vertex 1.73099 -2.99817 0
      vertex -1.73099 -2.99817 0
    endloop
  endfacet
  facet normal 0 0 -1
    outer loop
      vertex 4 -3 0
      vertex 3.46199 0 0
      vertex 4 3 0
    endloop
  endfacet
  facet normal 0 0 -1
    outer loop
      vertex 4 -3 0
      vertex 1.73099 -2.99817 0
      vertex 3.46199 0 0
    endloop
  endfacet
  facet normal 0 0 -1
    outer loop
      vertex 4 -3 0
      vertex -1.73099 -2.99817 0
      vertex 1.73099 -2.99817 0
    endloop
  endfacet
  facet normal -0 0 -1
    outer loop
      vertex -1.73099 -2.99817 0
      vertex -4 -3 0
      vertex -3.46199 0 0
    endloop
  endfacet
  facet normal 0 0 -1
    outer loop
      vertex -4 -3 0
      vertex -1.73099 -2.99817 0
      vertex 4 -3 0
    endloop
  endfacet
  facet normal 0 0 -1
    outer loop
      vertex 1.73099 2.99817 0
      vertex 4 3 0
      vertex 3.46199 0 0
    endloop
  endfacet
  facet normal 0 0 -1
    outer loop
      vertex -1.73099 2.99817 0
      vertex 4 3 0
      vertex 1.73099 2.99817 0
    endloop
  endfacet
  facet normal 0 0 -1
    outer loop
      vertex -1.73099 2.99817 0
      vertex -4 3 0
      vertex 4 3 0
    endloop
  endfacet
  facet normal 0 0 -1
    outer loop
      vertex -3.46199 0 0
      vertex -4 3 0
      vertex -1.73099 2.99817 0
    endloop
  endfacet
  facet normal 0 0 -1
    outer loop
      vertex -4 3 0
      vertex -3.46199 0 0
      vertex -4 -3 0
    endloop
  endfacet
  facet normal -0.866025 0.500001 0
    outer loop
      vertex 1.73099 -2.99817 0
      vertex 3.46199 0 2.5
      vertex 3.46199 0 0
    endloop
  endfacet
  facet normal -0.866025 0.500001 0
    outer loop
      vertex 3.46199 0 2.5
      vertex 1.73099 -2.99817 0
      vertex 1.73099 -2.99817 2.5
    endloop
  endfacet
  facet normal -0.866025 -0.500001 0
    outer loop
      vertex 3.46199 0 0
      vertex 1.73099 2.99817 2.5
      vertex 1.73099 2.99817 0
    endloop
  endfacet
  facet normal -0.866025 -0.500001 0
    outer loop
      vertex 1.73099 2.99817 2.5
      vertex 3.46199 0 0
      vertex 3.46199 0 2.5
    endloop
  endfacet
  facet normal 0.866025 0.500001 0
    outer loop
      vertex -1.73099 -2.99817 2.5
      vertex -3.46199 0 0
      vertex -3.46199 0 2.5
    endloop
  endfacet
  facet normal 0.866025 0.500001 0
    outer loop
      vertex -3.46199 0 0
      vertex -1.73099 -2.99817 2.5
      vertex -1.73099 -2.99817 0
    endloop
  endfacet
  facet normal -0 0 -1
    outer loop
      vertex 3.46199 0 2.5
      vertex 1.78581 -0.225599 2.5
      vertex 1.8 0 2.5
    endloop
  endfacet
  facet normal 0 0 -1
    outer loop
      vertex 3.46199 0 2.5
      vertex 1.74345 -0.447641 2.5
      vertex 1.78581 -0.225599 2.5
    endloop
  endfacet
  facet normal 0 0 -1
    outer loop
      vertex 1.57735 -0.867156 2.5
      vertex 3.46199 0 2.5
      vertex 1.73099 -2.99817 2.5
    endloop
  endfacet
  facet normal 0 0 -1
    outer loop
      vertex 3.46199 0 2.5
      vertex 1.6736 -0.662623 2.5
      vertex 1.74345 -0.447641 2.5
    endloop
  endfacet
  facet normal 0 0 -1
    outer loop
      vertex 3.46199 0 2.5
      vertex 1.57735 -0.867156 2.5
      vertex 1.6736 -0.662623 2.5
    endloop
  endfacet
  facet normal 0 0 -1
    outer loop
      vertex 1.73099 -2.99817 2.5
      vertex 1.45623 -1.05801 2.5
      vertex 1.57735 -0.867156 2.5
    endloop
  endfacet
  facet normal 0 0 -1
    outer loop
      vertex 1.73099 -2.99817 2.5
      vertex 1.31214 -1.23218 2.5
      vertex 1.45623 -1.05801 2.5
    endloop
  endfacet
  facet normal 0 0 -1
    outer loop
      vertex 1.73099 -2.99817 2.5
      vertex 1.14736 -1.38692 2.5
      vertex 1.31214 -1.23218 2.5
    endloop
  endfacet
  facet normal 0 0 -1
    outer loop
      vertex 1.73099 -2.99817 2.5
      vertex 0.964488 -1.51979 2.5
      vertex 1.14736 -1.38692 2.5
    endloop
  endfacet
  facet normal 0 0 -1
    outer loop
      vertex 1.73099 -2.99817 2.5
      vertex 0.766402 -1.62869 2.5
      vertex 0.964488 -1.51979 2.5
    endloop
  endfacet
  facet normal 0 0 -1
    outer loop
      vertex 1.73099 -2.99817 2.5
      vertex 0.556231 -1.7119 2.5
      vertex 0.766402 -1.62869 2.5
    endloop
  endfacet
  facet normal 0 0 -1
    outer loop
      vertex 1.73099 -2.99817 2.5
      vertex 0.337286 -1.76812 2.5
      vertex 0.556231 -1.7119 2.5
    endloop
  endfacet
  facet normal 0 0 -1
    outer loop
      vertex 1.73099 -2.99817 2.5
      vertex 0.113023 -1.79645 2.5
      vertex 0.337286 -1.76812 2.5
    endloop
  endfacet
  facet normal 0 0 -1
    outer loop
      vertex 1.73099 -2.99817 2.5
      vertex -0.113023 -1.79645 2.5
      vertex 0.113023 -1.79645 2.5
    endloop
  endfacet
  facet normal 0 0 -1
    outer loop
      vertex -1.73099 -2.99817 2.5
      vertex -0.113023 -1.79645 2.5
      vertex 1.73099 -2.99817 2.5
    endloop
  endfacet
  facet normal -0 0 -1
    outer loop
      vertex -0.113023 -1.79645 2.5
      vertex -1.73099 -2.99817 2.5
      vertex -0.337286 -1.76812 2.5
    endloop
  endfacet
  facet normal -0 0 -1
    outer loop
      vertex -0.337286 -1.76812 2.5
      vertex -1.73099 -2.99817 2.5
      vertex -0.556231 -1.7119 2.5
    endloop
  endfacet
  facet normal -0 0 -1
    outer loop
      vertex -0.556231 -1.7119 2.5
      vertex -1.73099 -2.99817 2.5
      vertex -0.766402 -1.62869 2.5
    endloop
  endfacet
  facet normal 0 0 -1
    outer loop
      vertex -1.73099 -2.99817 2.5
      vertex -0.964488 -1.51979 2.5
      vertex -0.766402 -1.62869 2.5
    endloop
  endfacet
  facet normal 0 0 -1
    outer loop
      vertex -1.73099 -2.99817 2.5
      vertex -1.14736 -1.38692 2.5
      vertex -0.964488 -1.51979 2.5
    endloop
  endfacet
  facet normal 0 0 -1
    outer loop
      vertex -1.73099 -2.99817 2.5
      vertex -1.31214 -1.23218 2.5
      vertex -1.14736 -1.38692 2.5
    endloop
  endfacet
  facet normal 0 0 -1
    outer loop
      vertex -1.73099 -2.99817 2.5
      vertex -1.45623 -1.05801 2.5
      vertex -1.31214 -1.23218 2.5
    endloop
  endfacet
  facet normal 0 0 -1
    outer loop
      vertex -1.73099 -2.99817 2.5
      vertex -1.57735 -0.867156 2.5
      vertex -1.45623 -1.05801 2.5
    endloop
  endfacet
  facet normal 0 0 -1
    outer loop
      vertex -3.46199 0 2.5
      vertex -1.57735 -0.867156 2.5
      vertex -1.73099 -2.99817 2.5
    endloop
  endfacet
  facet normal 0 0 -1
    outer loop
      vertex -1.57735 -0.867156 2.5
      vertex -3.46199 0 2.5
      vertex -1.6736 -0.662623 2.5
    endloop
  endfacet
  facet normal 0 0 -1
    outer loop
      vertex -1.6736 -0.662623 2.5
      vertex -3.46199 0 2.5
      vertex -1.74345 -0.447641 2.5
    endloop
  endfacet
  facet normal 0 0 -1
    outer loop
      vertex -1.74345 -0.447641 2.5
      vertex -3.46199 0 2.5
      vertex -1.78581 -0.225599 2.5
    endloop
  endfacet
  facet normal 0 0 -1
    outer loop
      vertex -1.78581 -0.225599 2.5
      vertex -3.46199 0 2.5
      vertex -1.8 0 2.5
    endloop
  endfacet
  facet normal 0 0 -1
    outer loop
      vertex 1.78581 0.225599 2.5
      vertex 3.46199 0 2.5
      vertex 1.8 0 2.5
    endloop
  endfacet
  facet normal 0 0 -1
    outer loop
      vertex 1.74345 0.447641 2.5
      vertex 3.46199 0 2.5
      vertex 1.78581 0.225599 2.5
    endloop
  endfacet
  facet normal 0 0 -1
    outer loop
      vertex 1.6736 0.662623 2.5
      vertex 3.46199 0 2.5
      vertex 1.74345 0.447641 2.5
    endloop
  endfacet
  facet normal 0 0 -1
    outer loop
      vertex 1.57735 0.867156 2.5
      vertex 3.46199 0 2.5
      vertex 1.6736 0.662623 2.5
    endloop
  endfacet
  facet normal 0 0 -1
    outer loop
      vertex 3.46199 0 2.5
      vertex 1.57735 0.867156 2.5
      vertex 1.73099 2.99817 2.5
    endloop
  endfacet
  facet normal 0 0 -1
    outer loop
      vertex 1.45623 1.05801 2.5
      vertex 1.73099 2.99817 2.5
      vertex 1.57735 0.867156 2.5
    endloop
  endfacet
  facet normal 0 0 -1
    outer loop
      vertex 1.31214 1.23218 2.5
      vertex 1.73099 2.99817 2.5
      vertex 1.45623 1.05801 2.5
    endloop
  endfacet
  facet normal 0 0 -1
    outer loop
      vertex 1.14736 1.38692 2.5
      vertex 1.73099 2.99817 2.5
      vertex 1.31214 1.23218 2.5
    endloop
  endfacet
  facet normal 0 0 -1
    outer loop
      vertex 0.964488 1.51979 2.5
      vertex 1.73099 2.99817 2.5
      vertex 1.14736 1.38692 2.5
    endloop
  endfacet
  facet normal 0 0 -1
    outer loop
      vertex 0.766402 1.62869 2.5
      vertex 1.73099 2.99817 2.5
      vertex 0.964488 1.51979 2.5
    endloop
  endfacet
  facet normal 0 0 -1
    outer loop
      vertex 0.556231 1.7119 2.5
      vertex 1.73099 2.99817 2.5
      vertex 0.766402 1.62869 2.5
    endloop
  endfacet
  facet normal 0 0 -1
    outer loop
      vertex 0.337286 1.76812 2.5
      vertex 1.73099 2.99817 2.5
      vertex 0.556231 1.7119 2.5
    endloop
  endfacet
  facet normal 0 0 -1
    outer loop
      vertex 0.113023 1.79645 2.5
      vertex 1.73099 2.99817 2.5
      vertex 0.337286 1.76812 2.5
    endloop
  endfacet
  facet normal 0 0 -1
    outer loop
      vertex -0.113023 1.79645 2.5
      vertex 1.73099 2.99817 2.5
      vertex 0.113023 1.79645 2.5
    endloop
  endfacet
  facet normal 0 0 -1
    outer loop
      vertex -1.73099 2.99817 2.5
      vertex -0.113023 1.79645 2.5
      vertex -0.337286 1.76812 2.5
    endloop
  endfacet
  facet normal 0 0 -1
    outer loop
      vertex -1.73099 2.99817 2.5
      vertex -0.337286 1.76812 2.5
      vertex -0.556231 1.7119 2.5
    endloop
  endfacet
  facet normal 0 0 -1
    outer loop
      vertex -1.73099 2.99817 2.5
      vertex -0.556231 1.7119 2.5
      vertex -0.766402 1.62869 2.5
    endloop
  endfacet
  facet normal 0 0 -1
    outer loop
      vertex -0.113023 1.79645 2.5
      vertex -1.73099 2.99817 2.5
      vertex 1.73099 2.99817 2.5
    endloop
  endfacet
  facet normal 0 0 -1
    outer loop
      vertex -0.964488 1.51979 2.5
      vertex -1.73099 2.99817 2.5
      vertex -0.766402 1.62869 2.5
    endloop
  endfacet
  facet normal 0 0 -1
    outer loop
      vertex -1.14736 1.38692 2.5
      vertex -1.73099 2.99817 2.5
      vertex -0.964488 1.51979 2.5
    endloop
  endfacet
  facet normal 0 0 -1
    outer loop
      vertex -1.31214 1.23218 2.5
      vertex -1.73099 2.99817 2.5
      vertex -1.14736 1.38692 2.5
    endloop
  endfacet
  facet normal 0 0 -1
    outer loop
      vertex -1.45623 1.05801 2.5
      vertex -1.73099 2.99817 2.5
      vertex -1.31214 1.23218 2.5
    endloop
  endfacet
  facet normal 0 0 -1
    outer loop
      vertex -1.57735 0.867156 2.5
      vertex -1.73099 2.99817 2.5
      vertex -1.45623 1.05801 2.5
    endloop
  endfacet
  facet normal 0 0 -1
    outer loop
      vertex -3.46199 0 2.5
      vertex -1.57735 0.867156 2.5
      vertex -1.6736 0.662623 2.5
    endloop
  endfacet
  facet normal 0 0 -1
    outer loop
      vertex -3.46199 0 2.5
      vertex -1.6736 0.662623 2.5
      vertex -1.74345 0.447641 2.5
    endloop
  endfacet
  facet normal 0 0 -1
    outer loop
      vertex -3.46199 0 2.5
      vertex -1.74345 0.447641 2.5
      vertex -1.78581 0.225599 2.5
    endloop
  endfacet
  facet normal 0 0 -1
    outer loop
      vertex -3.46199 0 2.5
      vertex -1.78581 0.225599 2.5
      vertex -1.8 0 2.5
    endloop
  endfacet
  facet normal -0 0 -1
    outer loop
      vertex -1.57735 0.867156 2.5
      vertex -3.46199 0 2.5
      vertex -1.73099 2.99817 2.5
    endloop
  endfacet
  facet normal 0 -1 0
    outer loop
      vertex -1.73099 2.99817 0
      vertex 1.73099 2.99817 2.5
      vertex -1.73099 2.99817 2.5
    endloop
  endfacet
  facet normal 0 -1 -0
    outer loop
      vertex 1.73099 2.99817 2.5
      vertex -1.73099 2.99817 0
      vertex 1.73099 2.99817 0
    endloop
  endfacet
  facet normal 0.866025 -0.500001 0
    outer loop
      vertex -3.46199 0 2.5
      vertex -1.73099 2.99817 0
      vertex -1.73099 2.99817 2.5
    endloop
  endfacet
  facet normal 0.866025 -0.500001 0
    outer loop
      vertex -1.73099 2.99817 0
      vertex -3.46199 0 2.5
      vertex -3.46199 0 0
    endloop
  endfacet
  facet normal 0 0 1
    outer loop
      vertex 4 3 7
      vertex 3 0 7
      vertex 4 -3 7
    endloop
  endfacet
  facet normal 0 0 1
    outer loop
      vertex 4 3 7
      vertex 2.97634 0.375999 7
      vertex 3 0 7
    endloop
  endfacet
  facet normal 0 0 1
    outer loop
      vertex 4 3 7
      vertex 2.90575 0.746069 7
      vertex 2.97634 0.375999 7
    endloop
  endfacet
  facet normal 0 0 1
    outer loop
      vertex 4 3 7
      vertex 2.78933 1.10437 7
      vertex 2.90575 0.746069 7
    endloop
  endfacet
  facet normal 0 0 1
    outer loop
      vertex 4 3 7
      vertex 2.62892 1.44526 7
      vertex 2.78933 1.10437 7
    endloop
  endfacet
  facet normal 0 0 1
    outer loop
      vertex 4 3 7
      vertex 2.42705 1.76336 7
      vertex 2.62892 1.44526 7
    endloop
  endfacet
  facet normal 0 0 1
    outer loop
      vertex 4 3 7
      vertex 2.18691 2.05364 7
      vertex 2.42705 1.76336 7
    endloop
  endfacet
  facet normal 0 0 1
    outer loop
      vertex 4 3 7
      vertex 1.91227 2.31154 7
      vertex 2.18691 2.05364 7
    endloop
  endfacet
  facet normal 0 0 1
    outer loop
      vertex 4 3 7
      vertex 1.60748 2.53298 7
      vertex 1.91227 2.31154 7
    endloop
  endfacet
  facet normal 0 0 1
    outer loop
      vertex 4 3 7
      vertex 1.27734 2.71448 7
      vertex 1.60748 2.53298 7
    endloop
  endfacet
  facet normal 0 0 1
    outer loop
      vertex 4 3 7
      vertex 0.927051 2.85317 7
      vertex 1.27734 2.71448 7
    endloop
  endfacet
  facet normal 0 0 1
    outer loop
      vertex 4 3 7
      vertex 0.562143 2.94686 7
      vertex 0.927051 2.85317 7
    endloop
  endfacet
  facet normal 0 0 1
    outer loop
      vertex 4 3 7
      vertex 0.188371 2.99408 7
      vertex 0.562143 2.94686 7
    endloop
  endfacet
  facet normal 0 0 1
    outer loop
      vertex 4 3 7
      vertex -0.188371 2.99408 7
      vertex 0.188371 2.99408 7
    endloop
  endfacet
  facet normal 0 0 1
    outer loop
      vertex -2.97634 0.375999 7
      vertex -4 3 7
      vertex -3 0 7
    endloop
  endfacet
  facet normal 0 0 1
    outer loop
      vertex -2.90575 0.746069 7
      vertex -4 3 7
      vertex -2.97634 0.375999 7
    endloop
  endfacet
  facet normal 0 0 1
    outer loop
      vertex -2.78933 1.10437 7
      vertex -4 3 7
      vertex -2.90575 0.746069 7
    endloop
  endfacet
  facet normal 0 0 1
    outer loop
      vertex -2.62892 1.44526 7
      vertex -4 3 7
      vertex -2.78933 1.10437 7
    endloop
  endfacet
  facet normal 0 0 1
    outer loop
      vertex -2.42705 1.76336 7
      vertex -4 3 7
      vertex -2.62892 1.44526 7
    endloop
  endfacet
  facet normal 0 0 1
    outer loop
      vertex -2.18691 2.05364 7
      vertex -4 3 7
      vertex -2.42705 1.76336 7
    endloop
  endfacet
  facet normal 0 0 1
    outer loop
      vertex -1.91227 2.31154 7
      vertex -4 3 7
      vertex -2.18691 2.05364 7
    endloop
  endfacet
  facet normal 0 0 1
    outer loop
      vertex -1.60748 2.53298 7
      vertex -4 3 7
      vertex -1.91227 2.31154 7
    endloop
  endfacet
  facet normal 0 0 1
    outer loop
      vertex -1.27734 2.71448 7
      vertex -4 3 7
      vertex -1.60748 2.53298 7
    endloop
  endfacet
  facet normal 0 0 1
    outer loop
      vertex -0.927051 2.85317 7
      vertex -4 3 7
      vertex -1.27734 2.71448 7
    endloop
  endfacet
  facet normal 0 0 1
    outer loop
      vertex -0.562143 2.94686 7
      vertex -4 3 7
      vertex -0.927051 2.85317 7
    endloop
  endfacet
  facet normal 0 0 1
    outer loop
      vertex -0.188371 2.99408 7
      vertex -4 3 7
      vertex -0.562143 2.94686 7
    endloop
  endfacet
  facet normal -0 0 1
    outer loop
      vertex -4 3 7
      vertex -0.188371 2.99408 7
      vertex 4 3 7
    endloop
  endfacet
  facet normal -0 0 1
    outer loop
      vertex 2.97634 -0.375999 7
      vertex 4 -3 7
      vertex 3 0 7
    endloop
  endfacet
  facet normal -0 0 1
    outer loop
      vertex 2.90575 -0.746069 7
      vertex 4 -3 7
      vertex 2.97634 -0.375999 7
    endloop
  endfacet
  facet normal -0 0 1
    outer loop
      vertex 2.78933 -1.10437 7
      vertex 4 -3 7
      vertex 2.90575 -0.746069 7
    endloop
  endfacet
  facet normal -0 0 1
    outer loop
      vertex 2.62892 -1.44526 7
      vertex 4 -3 7
      vertex 2.78933 -1.10437 7
    endloop
  endfacet
  facet normal -0 0 1
    outer loop
      vertex 2.42705 -1.76336 7
      vertex 4 -3 7
      vertex 2.62892 -1.44526 7
    endloop
  endfacet
  facet normal -0 0 1
    outer loop
      vertex 2.18691 -2.05364 7
      vertex 4 -3 7
      vertex 2.42705 -1.76336 7
    endloop
  endfacet
  facet normal -0 0 1
    outer loop
      vertex 1.91227 -2.31154 7
      vertex 4 -3 7
      vertex 2.18691 -2.05364 7
    endloop
  endfacet
  facet normal -0 0 1
    outer loop
      vertex 1.60748 -2.53298 7
      vertex 4 -3 7
      vertex 1.91227 -2.31154 7
    endloop
  endfacet
  facet normal -0 0 1
    outer loop
      vertex 1.27734 -2.71448 7
      vertex 4 -3 7
      vertex 1.60748 -2.53298 7
    endloop
  endfacet
  facet normal -0 0 1
    outer loop
      vertex 0.927051 -2.85317 7
      vertex 4 -3 7
      vertex 1.27734 -2.71448 7
    endloop
  endfacet
  facet normal -0 0 1
    outer loop
      vertex 0.562143 -2.94686 7
      vertex 4 -3 7
      vertex 0.927051 -2.85317 7
    endloop
  endfacet
  facet normal -0 0 1
    outer loop
      vertex 0.188371 -2.99408 7
      vertex 4 -3 7
      vertex 0.562143 -2.94686 7
    endloop
  endfacet
  facet normal -0 0 1
    outer loop
      vertex -0.188371 -2.99408 7
      vertex 4 -3 7
      vertex 0.188371 -2.99408 7
    endloop
  endfacet
  facet normal 0 0 1
    outer loop
      vertex -4 -3 7
      vertex -3 0 7
      vertex -4 3 7
    endloop
  endfacet
  facet normal 0 0 1
    outer loop
      vertex -3 0 7
      vertex -4 -3 7
      vertex -2.97634 -0.375999 7
    endloop
  endfacet
  facet normal 0 0 1
    outer loop
      vertex -0.188371 -2.99408 7
      vertex -4 -3 7
      vertex 4 -3 7
    endloop
  endfacet
  facet normal 0 0 1
    outer loop
      vertex -0.562143 -2.94686 7
      vertex -4 -3 7
      vertex -0.188371 -2.99408 7
    endloop
  endfacet
  facet normal 0 0 1
    outer loop
      vertex -0.927051 -2.85317 7
      vertex -4 -3 7
      vertex -0.562143 -2.94686 7
    endloop
  endfacet
  facet normal 0 0 1
    outer loop
      vertex -1.27734 -2.71448 7
      vertex -4 -3 7
      vertex -0.927051 -2.85317 7
    endloop
  endfacet
  facet normal 0 0 1
    outer loop
      vertex -1.60748 -2.53298 7
      vertex -4 -3 7
      vertex -1.27734 -2.71448 7
    endloop
  endfacet
  facet normal 0 0 1
    outer loop
      vertex -1.91227 -2.31154 7
      vertex -4 -3 7
      vertex -1.60748 -2.53298 7
    endloop
  endfacet
  facet normal 0 0 1
    outer loop
      vertex -2.18691 -2.05364 7
      vertex -4 -3 7
      vertex -1.91227 -2.31154 7
    endloop
  endfacet
  facet normal 0 0 1
    outer loop
      vertex -2.42705 -1.76336 7
      vertex -4 -3 7
      vertex -2.18691 -2.05364 7
    endloop
  endfacet
  facet normal 0 0 1
    outer loop
      vertex -2.62892 -1.44526 7
      vertex -4 -3 7
      vertex -2.42705 -1.76336 7
    endloop
  endfacet
  facet normal 0 0 1
    outer loop
      vertex -2.78933 -1.10437 7
      vertex -4 -3 7
      vertex -2.62892 -1.44526 7
    endloop
  endfacet
  facet normal 0 0 1
    outer loop
      vertex -2.90575 -0.746069 7
      vertex -4 -3 7
      vertex -2.78933 -1.10437 7
    endloop
  endfacet
  facet normal 0 0 1
    outer loop
      vertex -2.97634 -0.375999 7
      vertex -4 -3 7
      vertex -2.90575 -0.746069 7
    endloop
  endfacet
  facet normal 0 0 1
    outer loop
      vertex 1.8 0 7
      vertex 3 0 7
      vertex 2.97634 0.375999 7
    endloop
  endfacet
  facet normal 0 0 1
    outer loop
      vertex 1.78581 0.225599 7
      vertex 2.97634 0.375999 7
      vertex 2.90575 0.746069 7
    endloop
  endfacet
  facet normal 0 0 1
    outer loop
      vertex 3 0 7
      vertex 1.8 0 7
      vertex 2.97634 -0.375999 7
    endloop
  endfacet
  facet normal 0 0 1
    outer loop
      vertex 1.74345 0.447641 7
      vertex 2.90575 0.746069 7
      vertex 2.78933 1.10437 7
    endloop
  endfacet
  facet normal -0 0 1
    outer loop
      vertex 1.78581 -0.225599 7
      vertex 2.97634 -0.375999 7
      vertex 1.8 0 7
    endloop
  endfacet
  facet normal 0 0 1
    outer loop
      vertex 1.6736 0.662623 7
      vertex 2.78933 1.10437 7
      vertex 2.62892 1.44526 7
    endloop
  endfacet
  facet normal 0 0 1
    outer loop
      vertex 2.97634 -0.375999 7
      vertex 1.78581 -0.225599 7
      vertex 2.90575 -0.746069 7
    endloop
  endfacet
  facet normal 0 0 1
    outer loop
      vertex 1.57735 0.867156 7
      vertex 2.62892 1.44526 7
      vertex 2.42705 1.76336 7
    endloop
  endfacet
  facet normal -0 0 1
    outer loop
      vertex 1.74345 -0.447641 7
      vertex 2.90575 -0.746069 7
      vertex 1.78581 -0.225599 7
    endloop
  endfacet
  facet normal 0 0 1
    outer loop
      vertex 1.45623 1.05801 7
      vertex 2.42705 1.76336 7
      vertex 2.18691 2.05364 7
    endloop
  endfacet
  facet normal 0 0 1
    outer loop
      vertex 2.90575 -0.746069 7
      vertex 1.74345 -0.447641 7
      vertex 2.78933 -1.10437 7
    endloop
  endfacet
  facet normal 0 0 1
    outer loop
      vertex 1.31214 1.23218 7
      vertex 2.18691 2.05364 7
      vertex 1.91227 2.31154 7
    endloop
  endfacet
  facet normal -0 0 1
    outer loop
      vertex 1.6736 -0.662623 7
      vertex 2.78933 -1.10437 7
      vertex 1.74345 -0.447641 7
    endloop
  endfacet
  facet normal 0 0 1
    outer loop
      vertex 2.78933 -1.10437 7
      vertex 1.6736 -0.662623 7
      vertex 2.62892 -1.44526 7
    endloop
  endfacet
  facet normal 0 0 1
    outer loop
      vertex 2.97634 0.375999 7
      vertex 1.78581 0.225599 7
      vertex 1.8 0 7
    endloop
  endfacet
  facet normal 0 0 1
    outer loop
      vertex 2.90575 0.746069 7
      vertex 1.74345 0.447641 7
      vertex 1.78581 0.225599 7
    endloop
  endfacet
  facet normal 0 0 1
    outer loop
      vertex 2.78933 1.10437 7
      vertex 1.6736 0.662623 7
      vertex 1.74345 0.447641 7
    endloop
  endfacet
  facet normal 0 0 1
    outer loop
      vertex 1.14736 1.38692 7
      vertex 1.91227 2.31154 7
      vertex 1.60748 2.53298 7
    endloop
  endfacet
  facet normal 0 0 1
    outer loop
      vertex 2.62892 1.44526 7
      vertex 1.57735 0.867156 7
      vertex 1.6736 0.662623 7
    endloop
  endfacet
  facet normal 0 0 1
    outer loop
      vertex 2.42705 1.76336 7
      vertex 1.45623 1.05801 7
      vertex 1.57735 0.867156 7
    endloop
  endfacet
  facet normal 0 0 1
    outer loop
      vertex 2.18691 2.05364 7
      vertex 1.31214 1.23218 7
      vertex 1.45623 1.05801 7
    endloop
  endfacet
  facet normal 0 0 1
    outer loop
      vertex 0.964488 1.51979 7
      vertex 1.60748 2.53298 7
      vertex 1.27734 2.71448 7
    endloop
  endfacet
  facet normal 0 0 1
    outer loop
      vertex 1.91227 2.31154 7
      vertex 1.14736 1.38692 7
      vertex 1.31214 1.23218 7
    endloop
  endfacet
  facet normal 0 0 1
    outer loop
      vertex 1.60748 2.53298 7
      vertex 0.964488 1.51979 7
      vertex 1.14736 1.38692 7
    endloop
  endfacet
  facet normal 0 0 1
    outer loop
      vertex 0.766402 1.62869 7
      vertex 1.27734 2.71448 7
      vertex 0.927051 2.85317 7
    endloop
  endfacet
  facet normal 0 0 1
    outer loop
      vertex 1.27734 2.71448 7
      vertex 0.766402 1.62869 7
      vertex 0.964488 1.51979 7
    endloop
  endfacet
  facet normal 0 0 1
    outer loop
      vertex 0.556231 1.7119 7
      vertex 0.927051 2.85317 7
      vertex 0.562143 2.94686 7
    endloop
  endfacet
  facet normal 0 0 1
    outer loop
      vertex 0.927051 2.85317 7
      vertex 0.556231 1.7119 7
      vertex 0.766402 1.62869 7
    endloop
  endfacet
  facet normal 0 0 1
    outer loop
      vertex 0.562143 2.94686 7
      vertex 0.337286 1.76812 7
      vertex 0.556231 1.7119 7
    endloop
  endfacet
  facet normal 0 0 1
    outer loop
      vertex 0.188371 2.99408 7
      vertex 0.337286 1.76812 7
      vertex 0.562143 2.94686 7
    endloop
  endfacet
  facet normal 0 0 1
    outer loop
      vertex 0.188371 2.99408 7
      vertex 0.113023 1.79645 7
      vertex 0.337286 1.76812 7
    endloop
  endfacet
  facet normal 0 0 1
    outer loop
      vertex 0.188371 2.99408 7
      vertex -0.113023 1.79645 7
      vertex 0.113023 1.79645 7
    endloop
  endfacet
  facet normal -0 0 1
    outer loop
      vertex -0.188371 2.99408 7
      vertex -0.113023 1.79645 7
      vertex 0.188371 2.99408 7
    endloop
  endfacet
  facet normal 0 0 1
    outer loop
      vertex -0.188371 2.99408 7
      vertex -0.337286 1.76812 7
      vertex -0.113023 1.79645 7
    endloop
  endfacet
  facet normal -0 0 1
    outer loop
      vertex -0.562143 2.94686 7
      vertex -0.337286 1.76812 7
      vertex -0.188371 2.99408 7
    endloop
  endfacet
  facet normal 0 0 1
    outer loop
      vertex -0.337286 1.76812 7
      vertex -0.562143 2.94686 7
      vertex -0.556231 1.7119 7
    endloop
  endfacet
  facet normal -0 0 1
    outer loop
      vertex -0.927051 2.85317 7
      vertex -0.556231 1.7119 7
      vertex -0.562143 2.94686 7
    endloop
  endfacet
  facet normal 0 0 1
    outer loop
      vertex -0.556231 1.7119 7
      vertex -0.927051 2.85317 7
      vertex -0.766402 1.62869 7
    endloop
  endfacet
  facet normal -0 0 1
    outer loop
      vertex -1.27734 2.71448 7
      vertex -0.766402 1.62869 7
      vertex -0.927051 2.85317 7
    endloop
  endfacet
  facet normal 0 0 1
    outer loop
      vertex -0.766402 1.62869 7
      vertex -1.27734 2.71448 7
      vertex -0.964488 1.51979 7
    endloop
  endfacet
  facet normal -0 0 1
    outer loop
      vertex -1.60748 2.53298 7
      vertex -0.964488 1.51979 7
      vertex -1.27734 2.71448 7
    endloop
  endfacet
  facet normal 0 0 1
    outer loop
      vertex -0.964488 1.51979 7
      vertex -1.60748 2.53298 7
      vertex -1.14736 1.38692 7
    endloop
  endfacet
  facet normal -0 0 1
    outer loop
      vertex -1.91227 2.31154 7
      vertex -1.14736 1.38692 7
      vertex -1.60748 2.53298 7
    endloop
  endfacet
  facet normal 0 0 1
    outer loop
      vertex -1.14736 1.38692 7
      vertex -1.91227 2.31154 7
      vertex -1.31214 1.23218 7
    endloop
  endfacet
  facet normal -0 0 1
    outer loop
      vertex -2.18691 2.05364 7
      vertex -1.31214 1.23218 7
      vertex -1.91227 2.31154 7
    endloop
  endfacet
  facet normal 0 0 1
    outer loop
      vertex -1.31214 1.23218 7
      vertex -2.18691 2.05364 7
      vertex -1.45623 1.05801 7
    endloop
  endfacet
  facet normal -0 0 1
    outer loop
      vertex -2.42705 1.76336 7
      vertex -1.45623 1.05801 7
      vertex -2.18691 2.05364 7
    endloop
  endfacet
  facet normal 0 0 1
    outer loop
      vertex -1.45623 1.05801 7
      vertex -2.42705 1.76336 7
      vertex -1.57735 0.867156 7
    endloop
  endfacet
  facet normal 0 0 1
    outer loop
      vertex -1.57735 0.867156 7
      vertex -2.62892 1.44526 7
      vertex -1.6736 0.662623 7
    endloop
  endfacet
  facet normal -0 0 1
    outer loop
      vertex -2.62892 1.44526 7
      vertex -1.57735 0.867156 7
      vertex -2.42705 1.76336 7
    endloop
  endfacet
  facet normal -0 0 1
    outer loop
      vertex 1.57735 -0.867156 7
      vertex 2.62892 -1.44526 7
      vertex 1.6736 -0.662623 7
    endloop
  endfacet
  facet normal 0 0 1
    outer loop
      vertex 2.62892 -1.44526 7
      vertex 1.57735 -0.867156 7
      vertex 2.42705 -1.76336 7
    endloop
  endfacet
  facet normal -0 0 1
    outer loop
      vertex 1.45623 -1.05801 7
      vertex 2.42705 -1.76336 7
      vertex 1.57735 -0.867156 7
    endloop
  endfacet
  facet normal 0 0 1
    outer loop
      vertex 2.42705 -1.76336 7
      vertex 1.45623 -1.05801 7
      vertex 2.18691 -2.05364 7
    endloop
  endfacet
  facet normal -0 0 1
    outer loop
      vertex 1.31214 -1.23218 7
      vertex 2.18691 -2.05364 7
      vertex 1.45623 -1.05801 7
    endloop
  endfacet
  facet normal 0 0 1
    outer loop
      vertex 2.18691 -2.05364 7
      vertex 1.31214 -1.23218 7
      vertex 1.91227 -2.31154 7
    endloop
  endfacet
  facet normal -0 0 1
    outer loop
      vertex 1.14736 -1.38692 7
      vertex 1.91227 -2.31154 7
      vertex 1.31214 -1.23218 7
    endloop
  endfacet
  facet normal 0 0 1
    outer loop
      vertex 1.91227 -2.31154 7
      vertex 1.14736 -1.38692 7
      vertex 1.60748 -2.53298 7
    endloop
  endfacet
  facet normal -0 0 1
    outer loop
      vertex 0.964488 -1.51979 7
      vertex 1.60748 -2.53298 7
      vertex 1.14736 -1.38692 7
    endloop
  endfacet
  facet normal 0 0 1
    outer loop
      vertex 1.60748 -2.53298 7
      vertex 0.964488 -1.51979 7
      vertex 1.27734 -2.71448 7
    endloop
  endfacet
  facet normal -0 0 1
    outer loop
      vertex 0.766402 -1.62869 7
      vertex 1.27734 -2.71448 7
      vertex 0.964488 -1.51979 7
    endloop
  endfacet
  facet normal 0 0 1
    outer loop
      vertex 1.27734 -2.71448 7
      vertex 0.766402 -1.62869 7
      vertex 0.927051 -2.85317 7
    endloop
  endfacet
  facet normal -0 0 1
    outer loop
      vertex 0.556231 -1.7119 7
      vertex 0.927051 -2.85317 7
      vertex 0.766402 -1.62869 7
    endloop
  endfacet
  facet normal 0 0 1
    outer loop
      vertex 0.927051 -2.85317 7
      vertex 0.556231 -1.7119 7
      vertex 0.562143 -2.94686 7
    endloop
  endfacet
  facet normal -0 0 1
    outer loop
      vertex 0.337286 -1.76812 7
      vertex 0.562143 -2.94686 7
      vertex 0.556231 -1.7119 7
    endloop
  endfacet
  facet normal 0 0 1
    outer loop
      vertex 0.337286 -1.76812 7
      vertex 0.188371 -2.99408 7
      vertex 0.562143 -2.94686 7
    endloop
  endfacet
  facet normal -0 0 1
    outer loop
      vertex 0.113023 -1.79645 7
      vertex 0.188371 -2.99408 7
      vertex 0.337286 -1.76812 7
    endloop
  endfacet
  facet normal -0 0 1
    outer loop
      vertex -0.113023 -1.79645 7
      vertex 0.188371 -2.99408 7
      vertex 0.113023 -1.79645 7
    endloop
  endfacet
  facet normal 0 0 1
    outer loop
      vertex -0.113023 -1.79645 7
      vertex -0.188371 -2.99408 7
      vertex 0.188371 -2.99408 7
    endloop
  endfacet
  facet normal 0 0 1
    outer loop
      vertex -0.337286 -1.76812 7
      vertex -0.188371 -2.99408 7
      vertex -0.113023 -1.79645 7
    endloop
  endfacet
  facet normal 0 0 1
    outer loop
      vertex -0.562143 -2.94686 7
      vertex -0.337286 -1.76812 7
      vertex -0.556231 -1.7119 7
    endloop
  endfacet
  facet normal 0 0 1
    outer loop
      vertex -0.337286 -1.76812 7
      vertex -0.562143 -2.94686 7
      vertex -0.188371 -2.99408 7
    endloop
  endfacet
  facet normal 0 0 1
    outer loop
      vertex -0.927051 -2.85317 7
      vertex -0.556231 -1.7119 7
      vertex -0.766402 -1.62869 7
    endloop
  endfacet
  facet normal 0 0 1
    outer loop
      vertex -0.556231 -1.7119 7
      vertex -0.927051 -2.85317 7
      vertex -0.562143 -2.94686 7
    endloop
  endfacet
  facet normal 0 0 1
    outer loop
      vertex -1.27734 -2.71448 7
      vertex -0.766402 -1.62869 7
      vertex -0.964488 -1.51979 7
    endloop
  endfacet
  facet normal 0 0 1
    outer loop
      vertex -1.60748 -2.53298 7
      vertex -0.964488 -1.51979 7
      vertex -1.14736 -1.38692 7
    endloop
  endfacet
  facet normal 0 0 1
    outer loop
      vertex -0.766402 -1.62869 7
      vertex -1.27734 -2.71448 7
      vertex -0.927051 -2.85317 7
    endloop
  endfacet
  facet normal 0 0 1
    outer loop
      vertex -1.91227 -2.31154 7
      vertex -1.14736 -1.38692 7
      vertex -1.31214 -1.23218 7
    endloop
  endfacet
  facet normal 0 0 1
    outer loop
      vertex -2.18691 -2.05364 7
      vertex -1.31214 -1.23218 7
      vertex -1.45623 -1.05801 7
    endloop
  endfacet
  facet normal 0 0 1
    outer loop
      vertex -2.42705 -1.76336 7
      vertex -1.45623 -1.05801 7
      vertex -1.57735 -0.867156 7
    endloop
  endfacet
  facet normal 0 0 1
    outer loop
      vertex -0.964488 -1.51979 7
      vertex -1.60748 -2.53298 7
      vertex -1.27734 -2.71448 7
    endloop
  endfacet
  facet normal 0 0 1
    outer loop
      vertex -2.62892 -1.44526 7
      vertex -1.57735 -0.867156 7
      vertex -1.6736 -0.662623 7
    endloop
  endfacet
  facet normal 0 0 1
    outer loop
      vertex -2.78933 -1.10437 7
      vertex -1.6736 -0.662623 7
      vertex -1.74345 -0.447641 7
    endloop
  endfacet
  facet normal 0 0 1
    outer loop
      vertex -2.90575 -0.746069 7
      vertex -1.74345 -0.447641 7
      vertex -1.78581 -0.225599 7
    endloop
  endfacet
  facet normal 0 0 1
    outer loop
      vertex -1.14736 -1.38692 7
      vertex -1.91227 -2.31154 7
      vertex -1.60748 -2.53298 7
    endloop
  endfacet
  facet normal 0 0 1
    outer loop
      vertex -2.97634 -0.375999 7
      vertex -1.78581 -0.225599 7
      vertex -1.8 0 7
    endloop
  endfacet
  facet normal -0 0 1
    outer loop
      vertex -2.78933 1.10437 7
      vertex -1.6736 0.662623 7
      vertex -2.62892 1.44526 7
    endloop
  endfacet
  facet normal 0 0 1
    outer loop
      vertex -1.6736 0.662623 7
      vertex -2.78933 1.10437 7
      vertex -1.74345 0.447641 7
    endloop
  endfacet
  facet normal 0 0 1
    outer loop
      vertex -1.31214 -1.23218 7
      vertex -2.18691 -2.05364 7
      vertex -1.91227 -2.31154 7
    endloop
  endfacet
  facet normal -0 0 1
    outer loop
      vertex -2.90575 0.746069 7
      vertex -1.74345 0.447641 7
      vertex -2.78933 1.10437 7
    endloop
  endfacet
  facet normal 0 0 1
    outer loop
      vertex -1.45623 -1.05801 7
      vertex -2.42705 -1.76336 7
      vertex -2.18691 -2.05364 7
    endloop
  endfacet
  facet normal 0 0 1
    outer loop
      vertex -1.74345 0.447641 7
      vertex -2.90575 0.746069 7
      vertex -1.78581 0.225599 7
    endloop
  endfacet
  facet normal 0 0 1
    outer loop
      vertex -1.57735 -0.867156 7
      vertex -2.62892 -1.44526 7
      vertex -2.42705 -1.76336 7
    endloop
  endfacet
  facet normal -0 0 1
    outer loop
      vertex -2.97634 0.375999 7
      vertex -1.78581 0.225599 7
      vertex -2.90575 0.746069 7
    endloop
  endfacet
  facet normal 0 0 1
    outer loop
      vertex -1.6736 -0.662623 7
      vertex -2.78933 -1.10437 7
      vertex -2.62892 -1.44526 7
    endloop
  endfacet
  facet normal 0 0 1
    outer loop
      vertex -1.78581 0.225599 7
      vertex -2.97634 0.375999 7
      vertex -1.8 0 7
    endloop
  endfacet
  facet normal 0 0 1
    outer loop
      vertex -1.74345 -0.447641 7
      vertex -2.90575 -0.746069 7
      vertex -2.78933 -1.10437 7
    endloop
  endfacet
  facet normal 0 0 1
    outer loop
      vertex -3 0 7
      vertex -1.8 0 7
      vertex -2.97634 0.375999 7
    endloop
  endfacet
  facet normal 0 0 1
    outer loop
      vertex -1.78581 -0.225599 7
      vertex -2.97634 -0.375999 7
      vertex -2.90575 -0.746069 7
    endloop
  endfacet
  facet normal 0 0 1
    outer loop
      vertex -1.8 0 7
      vertex -3 0 7
      vertex -2.97634 -0.375999 7
    endloop
  endfacet
  facet normal -0.998028 -0.0627752 0
    outer loop
      vertex 1.8 0 2.5
      vertex 1.78581 0.225599 7
      vertex 1.78581 0.225599 2.5
    endloop
  endfacet
  facet normal -0.998028 -0.0627752 0
    outer loop
      vertex 1.78581 0.225599 7
      vertex 1.8 0 2.5
      vertex 1.8 0 7
    endloop
  endfacet
  facet normal 0.998028 -0.0627752 0
    outer loop
      vertex -1.8 0 7
      vertex -1.78581 0.225599 2.5
      vertex -1.78581 0.225599 7
    endloop
  endfacet
  facet normal 0.998028 -0.0627752 0
    outer loop
      vertex -1.78581 0.225599 2.5
      vertex -1.8 0 7
      vertex -1.8 0 2.5
    endloop
  endfacet
  facet normal 0 -1 0
    outer loop
      vertex -0.113023 1.79645 2.5
      vertex 0.113023 1.79645 7
      vertex -0.113023 1.79645 7
    endloop
  endfacet
  facet normal 0 -1 -0
    outer loop
      vertex 0.113023 1.79645 7
      vertex -0.113023 1.79645 2.5
      vertex 0.113023 1.79645 2.5
    endloop
  endfacet
  facet normal -0.68455 -0.728966 0
    outer loop
      vertex 1.14736 1.38692 2.5
      vertex 1.31214 1.23218 7
      vertex 1.14736 1.38692 7
    endloop
  endfacet
  facet normal -0.68455 -0.728966 -0
    outer loop
      vertex 1.31214 1.23218 7
      vertex 1.14736 1.38692 2.5
      vertex 1.31214 1.23218 2.5
    endloop
  endfacet
  facet normal 0.68455 -0.728966 0
    outer loop
      vertex -1.31214 1.23218 2.5
      vertex -1.14736 1.38692 7
      vertex -1.31214 1.23218 7
    endloop
  endfacet
  facet normal 0.68455 -0.728966 0
    outer loop
      vertex -1.14736 1.38692 7
      vertex -1.31214 1.23218 2.5
      vertex -1.14736 1.38692 2.5
    endloop
  endfacet
  facet normal 0.368115 -0.92978 0
    outer loop
      vertex -0.766402 1.62869 2.5
      vertex -0.556231 1.7119 7
      vertex -0.766402 1.62869 7
    endloop
  endfacet
  facet normal 0.368115 -0.92978 0
    outer loop
      vertex -0.556231 1.7119 7
      vertex -0.766402 1.62869 2.5
      vertex -0.556231 1.7119 2.5
    endloop
  endfacet
  facet normal -0.90482 -0.425794 0
    outer loop
      vertex 1.6736 0.662623 2.5
      vertex 1.57735 0.867156 7
      vertex 1.57735 0.867156 2.5
    endloop
  endfacet
  facet normal -0.90482 -0.425794 0
    outer loop
      vertex 1.57735 0.867156 7
      vertex 1.6736 0.662623 2.5
      vertex 1.6736 0.662623 7
    endloop
  endfacet
  facet normal -0.982285 -0.187395 0
    outer loop
      vertex 1.78581 0.225599 2.5
      vertex 1.74345 0.447641 7
      vertex 1.74345 0.447641 2.5
    endloop
  endfacet
  facet normal -0.982285 -0.187395 0
    outer loop
      vertex 1.74345 0.447641 7
      vertex 1.78581 0.225599 2.5
      vertex 1.78581 0.225599 7
    endloop
  endfacet
  facet normal -0.368115 -0.92978 0
    outer loop
      vertex 0.556231 1.7119 2.5
      vertex 0.766402 1.62869 7
      vertex 0.556231 1.7119 7
    endloop
  endfacet
  facet normal -0.368115 -0.92978 -0
    outer loop
      vertex 0.766402 1.62869 7
      vertex 0.556231 1.7119 2.5
      vertex 0.766402 1.62869 2.5
    endloop
  endfacet
  facet normal -0.248708 -0.968578 0
    outer loop
      vertex 0.337286 1.76812 2.5
      vertex 0.556231 1.7119 7
      vertex 0.337286 1.76812 7
    endloop
  endfacet
  facet normal -0.248708 -0.968578 -0
    outer loop
      vertex 0.556231 1.7119 7
      vertex 0.337286 1.76812 2.5
      vertex 0.556231 1.7119 2.5
    endloop
  endfacet
  facet normal -0.587802 -0.809005 0
    outer loop
      vertex 0.964488 1.51979 2.5
      vertex 1.14736 1.38692 7
      vertex 0.964488 1.51979 7
    endloop
  endfacet
  facet normal -0.587802 -0.809005 -0
    outer loop
      vertex 1.14736 1.38692 7
      vertex 0.964488 1.51979 2.5
      vertex 1.14736 1.38692 2.5
    endloop
  endfacet
  facet normal 0.90482 -0.425794 0
    outer loop
      vertex -1.6736 0.662623 7
      vertex -1.57735 0.867156 2.5
      vertex -1.57735 0.867156 7
    endloop
  endfacet
  facet normal 0.90482 -0.425794 0
    outer loop
      vertex -1.57735 0.867156 2.5
      vertex -1.6736 0.662623 7
      vertex -1.6736 0.662623 2.5
    endloop
  endfacet
  facet normal 0.844327 -0.535828 0
    outer loop
      vertex -1.57735 0.867156 7
      vertex -1.45623 1.05801 2.5
      vertex -1.45623 1.05801 7
    endloop
  endfacet
  facet normal 0.844327 -0.535828 0
    outer loop
      vertex -1.45623 1.05801 2.5
      vertex -1.57735 0.867156 7
      vertex -1.57735 0.867156 2.5
    endloop
  endfacet
  facet normal 0.951059 -0.309009 0
    outer loop
      vertex -1.74345 0.447641 7
      vertex -1.6736 0.662623 2.5
      vertex -1.6736 0.662623 7
    endloop
  endfacet
  facet normal 0.951059 -0.309009 0
    outer loop
      vertex -1.6736 0.662623 2.5
      vertex -1.74345 0.447641 7
      vertex -1.74345 0.447641 2.5
    endloop
  endfacet
  facet normal 0.587802 -0.809005 0
    outer loop
      vertex -1.14736 1.38692 2.5
      vertex -0.964488 1.51979 7
      vertex -1.14736 1.38692 7
    endloop
  endfacet
  facet normal 0.587802 -0.809005 0
    outer loop
      vertex -0.964488 1.51979 7
      vertex -1.14736 1.38692 2.5
      vertex -0.964488 1.51979 2.5
    endloop
  endfacet
  facet normal 0.125329 -0.992115 0
    outer loop
      vertex -0.337286 1.76812 2.5
      vertex -0.113023 1.79645 7
      vertex -0.337286 1.76812 7
    endloop
  endfacet
  facet normal 0.125329 -0.992115 0
    outer loop
      vertex -0.113023 1.79645 7
      vertex -0.337286 1.76812 2.5
      vertex -0.113023 1.79645 2.5
    endloop
  endfacet
  facet normal -0.998028 0.0627752 0
    outer loop
      vertex 1.78581 -0.225599 2.5
      vertex 1.8 0 7
      vertex 1.8 0 2.5
    endloop
  endfacet
  facet normal -0.998028 0.0627752 0
    outer loop
      vertex 1.8 0 7
      vertex 1.78581 -0.225599 2.5
      vertex 1.78581 -0.225599 7
    endloop
  endfacet
  facet normal -0.125329 0.992115 0
    outer loop
      vertex 0.337286 -1.76812 2.5
      vertex 0.113023 -1.79645 7
      vertex 0.337286 -1.76812 7
    endloop
  endfacet
  facet normal -0.125329 0.992115 0
    outer loop
      vertex 0.113023 -1.79645 7
      vertex 0.337286 -1.76812 2.5
      vertex 0.113023 -1.79645 2.5
    endloop
  endfacet
  facet normal -0.951059 -0.309009 0
    outer loop
      vertex 1.74345 0.447641 2.5
      vertex 1.6736 0.662623 7
      vertex 1.6736 0.662623 2.5
    endloop
  endfacet
  facet normal -0.951059 -0.309009 0
    outer loop
      vertex 1.6736 0.662623 7
      vertex 1.74345 0.447641 2.5
      vertex 1.74345 0.447641 7
    endloop
  endfacet
  facet normal -0.770504 -0.637435 0
    outer loop
      vertex 1.45623 1.05801 2.5
      vertex 1.31214 1.23218 7
      vertex 1.31214 1.23218 2.5
    endloop
  endfacet
  facet normal -0.770504 -0.637435 0
    outer loop
      vertex 1.31214 1.23218 7
      vertex 1.45623 1.05801 2.5
      vertex 1.45623 1.05801 7
    endloop
  endfacet
  facet normal -0.844327 -0.535828 0
    outer loop
      vertex 1.57735 0.867156 2.5
      vertex 1.45623 1.05801 7
      vertex 1.45623 1.05801 2.5
    endloop
  endfacet
  facet normal -0.844327 -0.535828 0
    outer loop
      vertex 1.45623 1.05801 7
      vertex 1.57735 0.867156 2.5
      vertex 1.57735 0.867156 7
    endloop
  endfacet
  facet normal -0.125329 -0.992115 0
    outer loop
      vertex 0.113023 1.79645 2.5
      vertex 0.337286 1.76812 7
      vertex 0.113023 1.79645 7
    endloop
  endfacet
  facet normal -0.125329 -0.992115 -0
    outer loop
      vertex 0.337286 1.76812 7
      vertex 0.113023 1.79645 2.5
      vertex 0.337286 1.76812 2.5
    endloop
  endfacet
  facet normal -0.481758 -0.876304 0
    outer loop
      vertex 0.766402 1.62869 2.5
      vertex 0.964488 1.51979 7
      vertex 0.766402 1.62869 7
    endloop
  endfacet
  facet normal -0.481758 -0.876304 -0
    outer loop
      vertex 0.964488 1.51979 7
      vertex 0.766402 1.62869 2.5
      vertex 0.964488 1.51979 2.5
    endloop
  endfacet
  facet normal 0.770504 -0.637435 0
    outer loop
      vertex -1.45623 1.05801 7
      vertex -1.31214 1.23218 2.5
      vertex -1.31214 1.23218 7
    endloop
  endfacet
  facet normal 0.770504 -0.637435 0
    outer loop
      vertex -1.31214 1.23218 2.5
      vertex -1.45623 1.05801 7
      vertex -1.45623 1.05801 2.5
    endloop
  endfacet
  facet normal 0.982285 -0.187395 0
    outer loop
      vertex -1.78581 0.225599 7
      vertex -1.74345 0.447641 2.5
      vertex -1.74345 0.447641 7
    endloop
  endfacet
  facet normal 0.982285 -0.187395 0
    outer loop
      vertex -1.74345 0.447641 2.5
      vertex -1.78581 0.225599 7
      vertex -1.78581 0.225599 2.5
    endloop
  endfacet
  facet normal 0.481758 -0.876304 0
    outer loop
      vertex -0.964488 1.51979 2.5
      vertex -0.766402 1.62869 7
      vertex -0.964488 1.51979 7
    endloop
  endfacet
  facet normal 0.481758 -0.876304 0
    outer loop
      vertex -0.766402 1.62869 7
      vertex -0.964488 1.51979 2.5
      vertex -0.766402 1.62869 2.5
    endloop
  endfacet
  facet normal 0.248708 -0.968578 0
    outer loop
      vertex -0.556231 1.7119 2.5
      vertex -0.337286 1.76812 7
      vertex -0.556231 1.7119 7
    endloop
  endfacet
  facet normal 0.248708 -0.968578 0
    outer loop
      vertex -0.337286 1.76812 7
      vertex -0.556231 1.7119 2.5
      vertex -0.337286 1.76812 2.5
    endloop
  endfacet
  facet normal -0.951059 0.309009 0
    outer loop
      vertex 1.6736 -0.662623 2.5
      vertex 1.74345 -0.447641 7
      vertex 1.74345 -0.447641 2.5
    endloop
  endfacet
  facet normal -0.951059 0.309009 0
    outer loop
      vertex 1.74345 -0.447641 7
      vertex 1.6736 -0.662623 2.5
      vertex 1.6736 -0.662623 7
    endloop
  endfacet
  facet normal -0.982285 0.187395 0
    outer loop
      vertex 1.74345 -0.447641 2.5
      vertex 1.78581 -0.225599 7
      vertex 1.78581 -0.225599 2.5
    endloop
  endfacet
  facet normal -0.982285 0.187395 0
    outer loop
      vertex 1.78581 -0.225599 7
      vertex 1.74345 -0.447641 2.5
      vertex 1.74345 -0.447641 7
    endloop
  endfacet
  facet normal 0.951059 0.309009 0
    outer loop
      vertex -1.6736 -0.662623 7
      vertex -1.74345 -0.447641 2.5
      vertex -1.74345 -0.447641 7
    endloop
  endfacet
  facet normal 0.951059 0.309009 0
    outer loop
      vertex -1.74345 -0.447641 2.5
      vertex -1.6736 -0.662623 7
      vertex -1.6736 -0.662623 2.5
    endloop
  endfacet
  facet normal -0.368115 0.92978 0
    outer loop
      vertex 0.766402 -1.62869 2.5
      vertex 0.556231 -1.7119 7
      vertex 0.766402 -1.62869 7
    endloop
  endfacet
  facet normal -0.368115 0.92978 0
    outer loop
      vertex 0.556231 -1.7119 7
      vertex 0.766402 -1.62869 2.5
      vertex 0.556231 -1.7119 2.5
    endloop
  endfacet
  facet normal -0.248708 0.968578 0
    outer loop
      vertex 0.556231 -1.7119 2.5
      vertex 0.337286 -1.76812 7
      vertex 0.556231 -1.7119 7
    endloop
  endfacet
  facet normal -0.248708 0.968578 0
    outer loop
      vertex 0.337286 -1.76812 7
      vertex 0.556231 -1.7119 2.5
      vertex 0.337286 -1.76812 2.5
    endloop
  endfacet
  facet normal -0.481758 0.876304 0
    outer loop
      vertex 0.964488 -1.51979 2.5
      vertex 0.766402 -1.62869 7
      vertex 0.964488 -1.51979 7
    endloop
  endfacet
  facet normal -0.481758 0.876304 0
    outer loop
      vertex 0.766402 -1.62869 7
      vertex 0.964488 -1.51979 2.5
      vertex 0.766402 -1.62869 2.5
    endloop
  endfacet
  facet normal -0.68455 0.728966 0
    outer loop
      vertex 1.31214 -1.23218 2.5
      vertex 1.14736 -1.38692 7
      vertex 1.31214 -1.23218 7
    endloop
  endfacet
  facet normal -0.68455 0.728966 0
    outer loop
      vertex 1.14736 -1.38692 7
      vertex 1.31214 -1.23218 2.5
      vertex 1.14736 -1.38692 2.5
    endloop
  endfacet
  facet normal -0.90482 0.425794 0
    outer loop
      vertex 1.57735 -0.867156 2.5
      vertex 1.6736 -0.662623 7
      vertex 1.6736 -0.662623 2.5
    endloop
  endfacet
  facet normal -0.90482 0.425794 0
    outer loop
      vertex 1.6736 -0.662623 7
      vertex 1.57735 -0.867156 2.5
      vertex 1.57735 -0.867156 7
    endloop
  endfacet
  facet normal -0.770504 0.637435 0
    outer loop
      vertex 1.31214 -1.23218 2.5
      vertex 1.45623 -1.05801 7
      vertex 1.45623 -1.05801 2.5
    endloop
  endfacet
  facet normal -0.770504 0.637435 0
    outer loop
      vertex 1.45623 -1.05801 7
      vertex 1.31214 -1.23218 2.5
      vertex 1.31214 -1.23218 7
    endloop
  endfacet
  facet normal 0.368115 0.92978 -0
    outer loop
      vertex -0.556231 -1.7119 2.5
      vertex -0.766402 -1.62869 7
      vertex -0.556231 -1.7119 7
    endloop
  endfacet
  facet normal 0.368115 0.92978 0
    outer loop
      vertex -0.766402 -1.62869 7
      vertex -0.556231 -1.7119 2.5
      vertex -0.766402 -1.62869 2.5
    endloop
  endfacet
  facet normal 0.770504 0.637435 0
    outer loop
      vertex -1.31214 -1.23218 7
      vertex -1.45623 -1.05801 2.5
      vertex -1.45623 -1.05801 7
    endloop
  endfacet
  facet normal 0.770504 0.637435 0
    outer loop
      vertex -1.45623 -1.05801 2.5
      vertex -1.31214 -1.23218 7
      vertex -1.31214 -1.23218 2.5
    endloop
  endfacet
  facet normal 0.998028 0.0627752 0
    outer loop
      vertex -1.78581 -0.225599 7
      vertex -1.8 0 2.5
      vertex -1.8 0 7
    endloop
  endfacet
  facet normal 0.998028 0.0627752 0
    outer loop
      vertex -1.8 0 2.5
      vertex -1.78581 -0.225599 7
      vertex -1.78581 -0.225599 2.5
    endloop
  endfacet
  facet normal -0.587802 0.809005 0
    outer loop
      vertex 1.14736 -1.38692 2.5
      vertex 0.964488 -1.51979 7
      vertex 1.14736 -1.38692 7
    endloop
  endfacet
  facet normal -0.587802 0.809005 0
    outer loop
      vertex 0.964488 -1.51979 7
      vertex 1.14736 -1.38692 2.5
      vertex 0.964488 -1.51979 2.5
    endloop
  endfacet
  facet normal -0.844327 0.535828 0
    outer loop
      vertex 1.45623 -1.05801 2.5
      vertex 1.57735 -0.867156 7
      vertex 1.57735 -0.867156 2.5
    endloop
  endfacet
  facet normal -0.844327 0.535828 0
    outer loop
      vertex 1.57735 -0.867156 7
      vertex 1.45623 -1.05801 2.5
      vertex 1.45623 -1.05801 7
    endloop
  endfacet
  facet normal 0 1 -0
    outer loop
      vertex 0.113023 -1.79645 2.5
      vertex -0.113023 -1.79645 7
      vertex 0.113023 -1.79645 7
    endloop
  endfacet
  facet normal 0 1 0
    outer loop
      vertex -0.113023 -1.79645 7
      vertex 0.113023 -1.79645 2.5
      vertex -0.113023 -1.79645 2.5
    endloop
  endfacet
  facet normal 0.125329 0.992115 -0
    outer loop
      vertex -0.113023 -1.79645 2.5
      vertex -0.337286 -1.76812 7
      vertex -0.113023 -1.79645 7
    endloop
  endfacet
  facet normal 0.125329 0.992115 0
    outer loop
      vertex -0.337286 -1.76812 7
      vertex -0.113023 -1.79645 2.5
      vertex -0.337286 -1.76812 2.5
    endloop
  endfacet
  facet normal 0.248708 0.968578 -0
    outer loop
      vertex -0.337286 -1.76812 2.5
      vertex -0.556231 -1.7119 7
      vertex -0.337286 -1.76812 7
    endloop
  endfacet
  facet normal 0.248708 0.968578 0
    outer loop
      vertex -0.556231 -1.7119 7
      vertex -0.337286 -1.76812 2.5
      vertex -0.556231 -1.7119 2.5
    endloop
  endfacet
  facet normal 0.587802 0.809005 -0
    outer loop
      vertex -0.964488 -1.51979 2.5
      vertex -1.14736 -1.38692 7
      vertex -0.964488 -1.51979 7
    endloop
  endfacet
  facet normal 0.587802 0.809005 0
    outer loop
      vertex -1.14736 -1.38692 7
      vertex -0.964488 -1.51979 2.5
      vertex -1.14736 -1.38692 2.5
    endloop
  endfacet
  facet normal 0.68455 0.728966 -0
    outer loop
      vertex -1.14736 -1.38692 2.5
      vertex -1.31214 -1.23218 7
      vertex -1.14736 -1.38692 7
    endloop
  endfacet
  facet normal 0.68455 0.728966 0
    outer loop
      vertex -1.31214 -1.23218 7
      vertex -1.14736 -1.38692 2.5
      vertex -1.31214 -1.23218 2.5
    endloop
  endfacet
  facet normal 0.982285 0.187395 0
    outer loop
      vertex -1.74345 -0.447641 7
      vertex -1.78581 -0.225599 2.5
      vertex -1.78581 -0.225599 7
    endloop
  endfacet
  facet normal 0.982285 0.187395 0
    outer loop
      vertex -1.78581 -0.225599 2.5
      vertex -1.74345 -0.447641 7
      vertex -1.74345 -0.447641 2.5
    endloop
  endfacet
  facet normal 0.481758 0.876304 -0
    outer loop
      vertex -0.766402 -1.62869 2.5
      vertex -0.964488 -1.51979 7
      vertex -0.766402 -1.62869 7
    endloop
  endfacet
  facet normal 0.481758 0.876304 0
    outer loop
      vertex -0.964488 -1.51979 7
      vertex -0.766402 -1.62869 2.5
      vertex -0.964488 -1.51979 2.5
    endloop
  endfacet
  facet normal 0.844327 0.535828 0
    outer loop
      vertex -1.45623 -1.05801 7
      vertex -1.57735 -0.867156 2.5
      vertex -1.57735 -0.867156 7
    endloop
  endfacet
  facet normal 0.844327 0.535828 0
    outer loop
      vertex -1.57735 -0.867156 2.5
      vertex -1.45623 -1.05801 7
      vertex -1.45623 -1.05801 2.5
    endloop
  endfacet
  facet normal 0.90482 0.425794 0
    outer loop
      vertex -1.57735 -0.867156 7
      vertex -1.6736 -0.662623 2.5
      vertex -1.6736 -0.662623 7
    endloop
  endfacet
  facet normal 0.90482 0.425794 0
    outer loop
      vertex -1.6736 -0.662623 2.5
      vertex -1.57735 -0.867156 7
      vertex -1.57735 -0.867156 2.5
    endloop
  endfacet
  facet normal -1 0 0
    outer loop
      vertex -4 -3 0
      vertex -4 3 7
      vertex -4 3 0
    endloop
  endfacet
  facet normal -1 -0 0
    outer loop
      vertex -4 3 7
      vertex -4 -3 0
      vertex -4 -3 7
    endloop
  endfacet
  facet normal 1 -0 0
    outer loop
      vertex 4 -3 7
      vertex 4 3 0
      vertex 4 3 7
    endloop
  endfacet
  facet normal 1 0 0
    outer loop
      vertex 4 3 0
      vertex 4 -3 7
      vertex 4 -3 0
    endloop
  endfacet
  facet normal 0 1 -0
    outer loop
      vertex 4 3 0
      vertex -4 3 7
      vertex 4 3 7
    endloop
  endfacet
  facet normal 0 1 0
    outer loop
      vertex -4 3 7
      vertex 4 3 0
      vertex -4 3 0
    endloop
  endfacet
  facet normal 0 -1 0
    outer loop
      vertex -4 -3 0
      vertex 4 -3 7
      vertex -4 -3 7
    endloop
  endfacet
  facet normal 0 -1 -0
    outer loop
      vertex 4 -3 7
      vertex -4 -3 0
      vertex 4 -3 0
    endloop
  endfacet
endsolid OpenSCAD_Model
