solid OpenSCAD_Model
  facet normal 0.904826 0.425782 0
    outer loop
      vertex 7.43821 2.945 0.75
      vertex 7.01045 3.85403 -0.75
      vertex 7.01045 3.85403 0.75
    endloop
  endfacet
  facet normal 0.904826 0.425782 0
    outer loop
      vertex 7.01045 3.85403 -0.75
      vertex 7.43821 2.945 0.75
      vertex 7.43821 2.945 -0.75
    endloop
  endfacet
  facet normal 0.844331 0.535823 0
    outer loop
      vertex 7.01045 3.85403 0.75
      vertex 6.47214 4.70228 -0.75
      vertex 6.47214 4.70228 0.75
    endloop
  endfacet
  facet normal 0.844331 0.535823 0
    outer loop
      vertex 6.47214 4.70228 -0.75
      vertex 7.01045 3.85403 0.75
      vertex 7.01045 3.85403 -0.75
    endloop
  endfacet
  facet normal 0.248693 0.968582 -0
    outer loop
      vertex 2.47214 7.60845 -0.75
      vertex 1.49905 7.8583 0.75
      vertex 2.47214 7.60845 0.75
    endloop
  endfacet
  facet normal 0.248693 0.968582 0
    outer loop
      vertex 1.49905 7.8583 0.75
      vertex 2.47214 7.60845 -0.75
      vertex 1.49905 7.8583 -0.75
    endloop
  endfacet
  facet normal 0.368122 0.929777 -0
    outer loop
      vertex 3.40623 7.23862 -0.75
      vertex 2.47214 7.60845 0.75
      vertex 3.40623 7.23862 0.75
    endloop
  endfacet
  facet normal 0.368122 0.929777 0
    outer loop
      vertex 2.47214 7.60845 0.75
      vertex 3.40623 7.23862 -0.75
      vertex 2.47214 7.60845 -0.75
    endloop
  endfacet
  facet normal -0.368122 0.929777 0
    outer loop
      vertex -2.47214 7.60845 -0.75
      vertex -3.40623 7.23862 0.75
      vertex -2.47214 7.60845 0.75
    endloop
  endfacet
  facet normal -0.368122 0.929777 0
    outer loop
      vertex -3.40623 7.23862 0.75
      vertex -2.47214 7.60845 -0.75
      vertex -3.40623 7.23862 -0.75
    endloop
  endfacet
  facet normal -0.904826 0.425782 0
    outer loop
      vertex -7.43821 2.945 -0.75
      vertex -7.01045 3.85403 0.75
      vertex -7.01045 3.85403 -0.75
    endloop
  endfacet
  facet normal -0.904826 0.425782 0
    outer loop
      vertex -7.01045 3.85403 0.75
      vertex -7.43821 2.945 -0.75
      vertex -7.43821 2.945 0.75
    endloop
  endfacet
  facet normal 0.998027 -0.0627879 0
    outer loop
      vertex 7.93692 -1.00267 0.75
      vertex 8 0 -0.75
      vertex 8 0 0.75
    endloop
  endfacet
  facet normal 0.998027 -0.0627879 0
    outer loop
      vertex 8 0 -0.75
      vertex 7.93692 -1.00267 0.75
      vertex 7.93692 -1.00267 -0.75
    endloop
  endfacet
  facet normal 0.684546 0.72897 -0
    outer loop
      vertex 5.83175 5.47638 -0.75
      vertex 5.09939 6.16411 0.75
      vertex 5.83175 5.47638 0.75
    endloop
  endfacet
  facet normal 0.684546 0.72897 0
    outer loop
      vertex 5.09939 6.16411 0.75
      vertex 5.83175 5.47638 -0.75
      vertex 5.09939 6.16411 -0.75
    endloop
  endfacet
  facet normal 0.125328 0.992115 -0
    outer loop
      vertex 1.49905 7.8583 -0.75
      vertex 0.502324 7.98421 0.75
      vertex 1.49905 7.8583 0.75
    endloop
  endfacet
  facet normal 0.125328 0.992115 0
    outer loop
      vertex 0.502324 7.98421 0.75
      vertex 1.49905 7.8583 -0.75
      vertex 0.502324 7.98421 -0.75
    endloop
  endfacet
  facet normal 0.481759 0.876304 -0
    outer loop
      vertex 4.28661 6.75462 -0.75
      vertex 3.40623 7.23862 0.75
      vertex 4.28661 6.75462 0.75
    endloop
  endfacet
  facet normal 0.481759 0.876304 0
    outer loop
      vertex 3.40623 7.23862 0.75
      vertex 4.28661 6.75462 -0.75
      vertex 3.40623 7.23862 -0.75
    endloop
  endfacet
  facet normal -0.998027 0.0627879 0
    outer loop
      vertex -8 0 -0.75
      vertex -7.93692 1.00267 0.75
      vertex -7.93692 1.00267 -0.75
    endloop
  endfacet
  facet normal -0.998027 0.0627879 0
    outer loop
      vertex -7.93692 1.00267 0.75
      vertex -8 0 -0.75
      vertex -8 0 0.75
    endloop
  endfacet
  facet normal -0.770514 0.637423 0
    outer loop
      vertex -6.47214 4.70228 -0.75
      vertex -5.83175 5.47638 0.75
      vertex -5.83175 5.47638 -0.75
    endloop
  endfacet
  facet normal -0.770514 0.637423 0
    outer loop
      vertex -5.83175 5.47638 0.75
      vertex -6.47214 4.70228 -0.75
      vertex -6.47214 4.70228 0.75
    endloop
  endfacet
  facet normal -0.248693 0.968582 0
    outer loop
      vertex -1.49905 7.8583 -0.75
      vertex -2.47214 7.60845 0.75
      vertex -1.49905 7.8583 0.75
    endloop
  endfacet
  facet normal -0.248693 0.968582 0
    outer loop
      vertex -2.47214 7.60845 0.75
      vertex -1.49905 7.8583 -0.75
      vertex -2.47214 7.60845 -0.75
    endloop
  endfacet
  facet normal -0.684546 0.72897 0
    outer loop
      vertex -5.09939 6.16411 -0.75
      vertex -5.83175 5.47638 0.75
      vertex -5.09939 6.16411 0.75
    endloop
  endfacet
  facet normal -0.684546 0.72897 0
    outer loop
      vertex -5.83175 5.47638 0.75
      vertex -5.09939 6.16411 -0.75
      vertex -5.83175 5.47638 -0.75
    endloop
  endfacet
  facet normal 0.904826 -0.425782 0
    outer loop
      vertex 7.01045 -3.85403 0.75
      vertex 7.43821 -2.945 -0.75
      vertex 7.43821 -2.945 0.75
    endloop
  endfacet
  facet normal 0.904826 -0.425782 0
    outer loop
      vertex 7.43821 -2.945 -0.75
      vertex 7.01045 -3.85403 0.75
      vertex 7.01045 -3.85403 -0.75
    endloop
  endfacet
  facet normal -0.684546 -0.72897 0
    outer loop
      vertex -5.83175 -5.47638 -0.75
      vertex -5.09939 -6.16411 0.75
      vertex -5.83175 -5.47638 0.75
    endloop
  endfacet
  facet normal -0.684546 -0.72897 -0
    outer loop
      vertex -5.09939 -6.16411 0.75
      vertex -5.83175 -5.47638 -0.75
      vertex -5.09939 -6.16411 -0.75
    endloop
  endfacet
  facet normal -0.904826 -0.425782 0
    outer loop
      vertex -7.01045 -3.85403 -0.75
      vertex -7.43821 -2.945 0.75
      vertex -7.43821 -2.945 -0.75
    endloop
  endfacet
  facet normal -0.904826 -0.425782 0
    outer loop
      vertex -7.43821 -2.945 0.75
      vertex -7.01045 -3.85403 -0.75
      vertex -7.01045 -3.85403 0.75
    endloop
  endfacet
  facet normal 0.481759 -0.876304 0
    outer loop
      vertex 3.40623 -7.23862 -0.75
      vertex 4.28661 -6.75462 0.75
      vertex 3.40623 -7.23862 0.75
    endloop
  endfacet
  facet normal 0.481759 -0.876304 0
    outer loop
      vertex 4.28661 -6.75462 0.75
      vertex 3.40623 -7.23862 -0.75
      vertex 4.28661 -6.75462 -0.75
    endloop
  endfacet
  facet normal 0.951058 0.309013 0
    outer loop
      vertex 7.74866 1.98952 0.75
      vertex 7.43821 2.945 -0.75
      vertex 7.43821 2.945 0.75
    endloop
  endfacet
  facet normal 0.951058 0.309013 0
    outer loop
      vertex 7.43821 2.945 -0.75
      vertex 7.74866 1.98952 0.75
      vertex 7.74866 1.98952 -0.75
    endloop
  endfacet
  facet normal 0.770514 0.637423 0
    outer loop
      vertex 6.47214 4.70228 0.75
      vertex 5.83175 5.47638 -0.75
      vertex 5.83175 5.47638 0.75
    endloop
  endfacet
  facet normal 0.770514 0.637423 0
    outer loop
      vertex 5.83175 5.47638 -0.75
      vertex 6.47214 4.70228 0.75
      vertex 6.47214 4.70228 -0.75
    endloop
  endfacet
  facet normal 0 1 -0
    outer loop
      vertex 0.502324 7.98421 -0.75
      vertex -0.502324 7.98421 0.75
      vertex 0.502324 7.98421 0.75
    endloop
  endfacet
  facet normal 0 1 0
    outer loop
      vertex -0.502324 7.98421 0.75
      vertex 0.502324 7.98421 -0.75
      vertex -0.502324 7.98421 -0.75
    endloop
  endfacet
  facet normal 0.587779 0.809021 -0
    outer loop
      vertex 5.09939 6.16411 -0.75
      vertex 4.28661 6.75462 0.75
      vertex 5.09939 6.16411 0.75
    endloop
  endfacet
  facet normal 0.587779 0.809021 0
    outer loop
      vertex 4.28661 6.75462 0.75
      vertex 5.09939 6.16411 -0.75
      vertex 4.28661 6.75462 -0.75
    endloop
  endfacet
  facet normal 0 0 1
    outer loop
      vertex 0.353409 2.77626 0.75
      vertex -1.60263 2.77626 0.75
      vertex 0.353409 1.90048 0.75
    endloop
  endfacet
  facet normal 0 0 1
    outer loop
      vertex 0.502324 7.98421 0.75
      vertex 1.17123 6.20012 0.75
      vertex 1.49905 7.8583 0.75
    endloop
  endfacet
  facet normal 0 0 1
    outer loop
      vertex 0.502324 7.98421 0.75
      vertex 0.213058 6.20012 0.75
      vertex 1.17123 6.20012 0.75
    endloop
  endfacet
  facet normal -0 0 1
    outer loop
      vertex -0.502324 7.98421 0.75
      vertex 0.213058 6.20012 0.75
      vertex 0.502324 7.98421 0.75
    endloop
  endfacet
  facet normal -0 0 1
    outer loop
      vertex -1.49905 7.8583 0.75
      vertex 0.213058 6.20012 0.75
      vertex -0.502324 7.98421 0.75
    endloop
  endfacet
  facet normal -0 0 1
    outer loop
      vertex -2.47214 7.60845 0.75
      vertex 0.213058 6.20012 0.75
      vertex -1.49905 7.8583 0.75
    endloop
  endfacet
  facet normal -0 0 1
    outer loop
      vertex -3.40623 7.23862 0.75
      vertex -1.60263 3.42017 0.75
      vertex -2.47214 7.60845 0.75
    endloop
  endfacet
  facet normal 0 0 1
    outer loop
      vertex 0.213058 6.20012 0.75
      vertex -2.47214 7.60845 0.75
      vertex -1.60263 3.42017 0.75
    endloop
  endfacet
  facet normal 0 0 1
    outer loop
      vertex 1.17123 6.20012 0.75
      vertex 2.47214 7.60845 0.75
      vertex 1.49905 7.8583 0.75
    endloop
  endfacet
  facet normal 0 0 1
    outer loop
      vertex 2.47214 7.60845 0.75
      vertex 1.17123 6.20012 0.75
      vertex 1.74495 3.41405 0.75
    endloop
  endfacet
  facet normal 0 0 1
    outer loop
      vertex 1.74495 3.41405 0.75
      vertex 1.17123 6.20012 0.75
      vertex 1.17123 3.41405 0.75
    endloop
  endfacet
  facet normal 0 0 1
    outer loop
      vertex 4 -1 0.75
      vertex 8 0 0.75
      vertex 7.93692 1.00267 0.75
    endloop
  endfacet
  facet normal 0 0 1
    outer loop
      vertex 4 -1 0.75
      vertex 7.93692 1.00267 0.75
      vertex 7.74866 1.98952 0.75
    endloop
  endfacet
  facet normal 0 0 1
    outer loop
      vertex 8 0 0.75
      vertex 4 -1 0.75
      vertex 7.93692 -1.00267 0.75
    endloop
  endfacet
  facet normal 0 0 1
    outer loop
      vertex 4 -1 0.75
      vertex 7.74866 1.98952 0.75
      vertex 7.43821 2.945 0.75
    endloop
  endfacet
  facet normal 0 0 1
    outer loop
      vertex 7.93692 -1.00267 0.75
      vertex 4 -1 0.75
      vertex 7.74866 -1.98952 0.75
    endloop
  endfacet
  facet normal 0 0 1
    outer loop
      vertex 1.74495 2.77626 0.75
      vertex 7.43821 2.945 0.75
      vertex 7.01045 3.85403 0.75
    endloop
  endfacet
  facet normal 0 0 1
    outer loop
      vertex 7.74866 -1.98952 0.75
      vertex 4 -1 0.75
      vertex 7.43821 -2.945 0.75
    endloop
  endfacet
  facet normal 0 0 1
    outer loop
      vertex 1.74495 2.77626 0.75
      vertex 7.01045 3.85403 0.75
      vertex 6.47214 4.70228 0.75
    endloop
  endfacet
  facet normal 0 0 1
    outer loop
      vertex 4 -3 0.75
      vertex 7.43821 -2.945 0.75
      vertex 4 -1 0.75
    endloop
  endfacet
  facet normal 0 0 1
    outer loop
      vertex 1.74495 3.41405 0.75
      vertex 6.47214 4.70228 0.75
      vertex 5.83175 5.47638 0.75
    endloop
  endfacet
  facet normal 0 0 1
    outer loop
      vertex 7.43821 -2.945 0.75
      vertex 4 -3 0.75
      vertex 7.01045 -3.85403 0.75
    endloop
  endfacet
  facet normal 0 0 1
    outer loop
      vertex 1.74495 3.41405 0.75
      vertex 5.83175 5.47638 0.75
      vertex 5.09939 6.16411 0.75
    endloop
  endfacet
  facet normal 0 0 1
    outer loop
      vertex 7.01045 -3.85403 0.75
      vertex 4 -3 0.75
      vertex 6.47214 -4.70228 0.75
    endloop
  endfacet
  facet normal 0 0 1
    outer loop
      vertex 1.74495 3.41405 0.75
      vertex 5.09939 6.16411 0.75
      vertex 4.28661 6.75462 0.75
    endloop
  endfacet
  facet normal 0 0 1
    outer loop
      vertex 6.47214 -4.70228 0.75
      vertex 4 -3 0.75
      vertex 5.83175 -5.47638 0.75
    endloop
  endfacet
  facet normal 0 0 1
    outer loop
      vertex 5.83175 -5.47638 0.75
      vertex 4 -3 0.75
      vertex 5.09939 -6.16411 0.75
    endloop
  endfacet
  facet normal 0 0 1
    outer loop
      vertex 1.74495 3.41405 0.75
      vertex 4.28661 6.75462 0.75
      vertex 3.40623 7.23862 0.75
    endloop
  endfacet
  facet normal 0 0 1
    outer loop
      vertex 1.74495 3.41405 0.75
      vertex 3.40623 7.23862 0.75
      vertex 2.47214 7.60845 0.75
    endloop
  endfacet
  facet normal 0 0 1
    outer loop
      vertex 6.47214 4.70228 0.75
      vertex 1.74495 3.41405 0.75
      vertex 1.74495 2.77626 0.75
    endloop
  endfacet
  facet normal 0 0 1
    outer loop
      vertex 7.43821 2.945 0.75
      vertex 1.74495 2.77626 0.75
      vertex 4 -1 0.75
    endloop
  endfacet
  facet normal 0 0 1
    outer loop
      vertex 1.17123 1.90048 0.75
      vertex 1.74495 2.77626 0.75
      vertex 1.17123 2.77626 0.75
    endloop
  endfacet
  facet normal 0 0 1
    outer loop
      vertex 1.74495 2.77626 0.75
      vertex 1.17123 1.90048 0.75
      vertex 4 -1 0.75
    endloop
  endfacet
  facet normal -0 0 1
    outer loop
      vertex 0.353409 1.90048 0.75
      vertex 4 -1 0.75
      vertex 1.17123 1.90048 0.75
    endloop
  endfacet
  facet normal 0 0 1
    outer loop
      vertex -4 -1 0.75
      vertex 0.353409 1.90048 0.75
      vertex -1.60263 2.77626 0.75
    endloop
  endfacet
  facet normal -0 0 1
    outer loop
      vertex -4.28661 6.75462 0.75
      vertex -1.60263 3.42017 0.75
      vertex -3.40623 7.23862 0.75
    endloop
  endfacet
  facet normal 0 0 1
    outer loop
      vertex 0.353409 1.90048 0.75
      vertex -4 -1 0.75
      vertex 4 -1 0.75
    endloop
  endfacet
  facet normal -0 0 1
    outer loop
      vertex -5.09939 6.16411 0.75
      vertex -1.60263 3.42017 0.75
      vertex -4.28661 6.75462 0.75
    endloop
  endfacet
  facet normal -0 0 1
    outer loop
      vertex -6.47214 4.70228 0.75
      vertex -1.60263 3.42017 0.75
      vertex -5.83175 5.47638 0.75
    endloop
  endfacet
  facet normal -0 0 1
    outer loop
      vertex -5.83175 5.47638 0.75
      vertex -1.60263 3.42017 0.75
      vertex -5.09939 6.16411 0.75
    endloop
  endfacet
  facet normal 0 0 1
    outer loop
      vertex 5.09939 -6.16411 0.75
      vertex 4 -3 0.75
      vertex 4.28661 -6.75462 0.75
    endloop
  endfacet
  facet normal 0 0 1
    outer loop
      vertex 4 -3 0.75
      vertex 3.40623 -7.23862 0.75
      vertex 4.28661 -6.75462 0.75
    endloop
  endfacet
  facet normal 0 0 1
    outer loop
      vertex 4 -3 0.75
      vertex 2.47214 -7.60845 0.75
      vertex 3.40623 -7.23862 0.75
    endloop
  endfacet
  facet normal 0 0 1
    outer loop
      vertex 4 -3 0.75
      vertex 1.49905 -7.8583 0.75
      vertex 2.47214 -7.60845 0.75
    endloop
  endfacet
  facet normal 0 0 1
    outer loop
      vertex 4 -3 0.75
      vertex 0.502324 -7.98421 0.75
      vertex 1.49905 -7.8583 0.75
    endloop
  endfacet
  facet normal 0 0 1
    outer loop
      vertex 4 -3 0.75
      vertex -0.502324 -7.98421 0.75
      vertex 0.502324 -7.98421 0.75
    endloop
  endfacet
  facet normal -0 0 1
    outer loop
      vertex -4 -3 0.75
      vertex -0.502324 -7.98421 0.75
      vertex 4 -3 0.75
    endloop
  endfacet
  facet normal 0 0 1
    outer loop
      vertex -0.502324 -7.98421 0.75
      vertex -4 -3 0.75
      vertex -1.49905 -7.8583 0.75
    endloop
  endfacet
  facet normal 0 0 1
    outer loop
      vertex -1.49905 -7.8583 0.75
      vertex -4 -3 0.75
      vertex -2.47214 -7.60845 0.75
    endloop
  endfacet
  facet normal 0 0 1
    outer loop
      vertex -2.47214 -7.60845 0.75
      vertex -4 -3 0.75
      vertex -3.40623 -7.23862 0.75
    endloop
  endfacet
  facet normal 0 0 1
    outer loop
      vertex -4 -3 0.75
      vertex -4.28661 -6.75462 0.75
      vertex -3.40623 -7.23862 0.75
    endloop
  endfacet
  facet normal 0 0 1
    outer loop
      vertex -1.60263 3.42017 0.75
      vertex -6.47214 4.70228 0.75
      vertex -1.60263 2.77626 0.75
    endloop
  endfacet
  facet normal -0 0 1
    outer loop
      vertex -7.01045 3.85403 0.75
      vertex -1.60263 2.77626 0.75
      vertex -6.47214 4.70228 0.75
    endloop
  endfacet
  facet normal 0 0 1
    outer loop
      vertex -4 -3 0.75
      vertex -5.09939 -6.16411 0.75
      vertex -4.28661 -6.75462 0.75
    endloop
  endfacet
  facet normal -0 0 1
    outer loop
      vertex -7.43821 2.945 0.75
      vertex -1.60263 2.77626 0.75
      vertex -7.01045 3.85403 0.75
    endloop
  endfacet
  facet normal 0 0 1
    outer loop
      vertex -4 -3 0.75
      vertex -5.83175 -5.47638 0.75
      vertex -5.09939 -6.16411 0.75
    endloop
  endfacet
  facet normal 0 0 1
    outer loop
      vertex -1.60263 2.77626 0.75
      vertex -7.43821 2.945 0.75
      vertex -4 -1 0.75
    endloop
  endfacet
  facet normal 0 0 1
    outer loop
      vertex -4 -3 0.75
      vertex -6.47214 -4.70228 0.75
      vertex -5.83175 -5.47638 0.75
    endloop
  endfacet
  facet normal -0 0 1
    outer loop
      vertex -7.74866 1.98952 0.75
      vertex -4 -1 0.75
      vertex -7.43821 2.945 0.75
    endloop
  endfacet
  facet normal 0 0 1
    outer loop
      vertex -4 -3 0.75
      vertex -7.01045 -3.85403 0.75
      vertex -6.47214 -4.70228 0.75
    endloop
  endfacet
  facet normal -0 0 1
    outer loop
      vertex -7.93692 1.00267 0.75
      vertex -4 -1 0.75
      vertex -7.74866 1.98952 0.75
    endloop
  endfacet
  facet normal 0 0 1
    outer loop
      vertex -4 -3 0.75
      vertex -7.43821 -2.945 0.75
      vertex -7.01045 -3.85403 0.75
    endloop
  endfacet
  facet normal -0 0 1
    outer loop
      vertex -8 0 0.75
      vertex -4 -1 0.75
      vertex -7.93692 1.00267 0.75
    endloop
  endfacet
  facet normal 0 0 1
    outer loop
      vertex -4 -1 0.75
      vertex -7.43821 -2.945 0.75
      vertex -4 -3 0.75
    endloop
  endfacet
  facet normal 0 -0 1
    outer loop
      vertex -7.93692 -1.00267 0.75
      vertex -4 -1 0.75
      vertex -8 0 0.75
    endloop
  endfacet
  facet normal 0 -0 1
    outer loop
      vertex -7.43821 -2.945 0.75
      vertex -4 -1 0.75
      vertex -7.74866 -1.98952 0.75
    endloop
  endfacet
  facet normal 0 -0 1
    outer loop
      vertex -7.74866 -1.98952 0.75
      vertex -4 -1 0.75
      vertex -7.93692 -1.00267 0.75
    endloop
  endfacet
  facet normal 0 0 1
    outer loop
      vertex 0.355576 5.37306 0.75
      vertex 0.379028 5.40651 0.75
      vertex 0.380859 5.425 0.75
    endloop
  endfacet
  facet normal 0 0 1
    outer loop
      vertex 0.355576 5.37306 0.75
      vertex 0.377014 5.38242 0.75
      vertex 0.379028 5.40651 0.75
    endloop
  endfacet
  facet normal -0 0 1
    outer loop
      vertex 0.355576 5.37306 0.75
      vertex 0.374802 5.35271 0.75
      vertex 0.377014 5.38242 0.75
    endloop
  endfacet
  facet normal 0 0 1
    outer loop
      vertex 0.325058 5.3149 0.75
      vertex 0.374802 5.35271 0.75
      vertex 0.355576 5.37306 0.75
    endloop
  endfacet
  facet normal 0 0 1
    outer loop
      vertex 0.374802 5.35271 0.75
      vertex 0.325058 5.3149 0.75
      vertex 0.372406 5.3174 0.75
    endloop
  endfacet
  facet normal 0 0 1
    outer loop
      vertex 0.372406 5.3174 0.75
      vertex 0.325058 5.3149 0.75
      vertex 0.369812 5.27647 0.75
    endloop
  endfacet
  facet normal 0 0 1
    outer loop
      vertex 0.289322 5.25052 0.75
      vertex 0.369812 5.27647 0.75
      vertex 0.325058 5.3149 0.75
    endloop
  endfacet
  facet normal 0 0 1
    outer loop
      vertex 0.369812 5.27647 0.75
      vertex 0.289322 5.25052 0.75
      vertex 0.367035 5.22995 0.75
    endloop
  endfacet
  facet normal 0 0 1
    outer loop
      vertex 0.367035 5.22995 0.75
      vertex 0.289322 5.25052 0.75
      vertex 0.364075 5.17781 0.75
    endloop
  endfacet
  facet normal -0 0 1
    outer loop
      vertex 0.248337 5.1799 0.75
      vertex 0.364075 5.17781 0.75
      vertex 0.289322 5.25052 0.75
    endloop
  endfacet
  facet normal 0 0 1
    outer loop
      vertex 0.364075 5.17781 0.75
      vertex 0.248337 5.1799 0.75
      vertex 0.361237 5.12344 0.75
    endloop
  endfacet
  facet normal 0 0 1
    outer loop
      vertex 0.202133 5.10304 0.75
      vertex 0.361237 5.12344 0.75
      vertex 0.248337 5.1799 0.75
    endloop
  endfacet
  facet normal 0 0 1
    outer loop
      vertex 0.361237 5.12344 0.75
      vertex 0.202133 5.10304 0.75
      vertex 0.358856 5.07021 0.75
    endloop
  endfacet
  facet normal 0 0 1
    outer loop
      vertex 0.358856 5.07021 0.75
      vertex 0.202133 5.10304 0.75
      vertex 0.356888 5.01808 0.75
    endloop
  endfacet
  facet normal -0 0 1
    outer loop
      vertex 0.150696 5.01997 0.75
      vertex 0.356888 5.01808 0.75
      vertex 0.202133 5.10304 0.75
    endloop
  endfacet
  facet normal 0 0 1
    outer loop
      vertex 0.356888 5.01808 0.75
      vertex 0.150696 5.01997 0.75
      vertex 0.355362 4.96709 0.75
    endloop
  endfacet
  facet normal 0 0 1
    outer loop
      vertex 0.355362 4.96709 0.75
      vertex 0.150696 5.01997 0.75
      vertex 0.354279 4.91721 0.75
    endloop
  endfacet
  facet normal -0 0 1
    outer loop
      vertex 0.0940247 4.93066 0.75
      vertex 0.354279 4.91721 0.75
      vertex 0.150696 5.01997 0.75
    endloop
  endfacet
  facet normal 0 0 1
    outer loop
      vertex 0.354279 4.91721 0.75
      vertex 0.0940247 4.93066 0.75
      vertex 0.353622 4.86845 0.75
    endloop
  endfacet
  facet normal 0 0 1
    outer loop
      vertex 0.353622 4.86845 0.75
      vertex 0.0940247 4.93066 0.75
      vertex 0.353409 4.82083 0.75
    endloop
  endfacet
  facet normal 0 0 1
    outer loop
      vertex 0.353409 4.82083 0.75
      vertex 0.0940247 4.93066 0.75
      vertex 0.353409 3.41405 0.75
    endloop
  endfacet
  facet normal 0 0 1
    outer loop
      vertex 0.353409 3.41405 0.75
      vertex 0.0940247 4.93066 0.75
      vertex -0.903824 3.41405 0.75
    endloop
  endfacet
  facet normal -0.951058 0.309013 0
    outer loop
      vertex -7.74866 1.98952 -0.75
      vertex -7.43821 2.945 0.75
      vertex -7.43821 2.945 -0.75
    endloop
  endfacet
  facet normal -0.951058 0.309013 0
    outer loop
      vertex -7.43821 2.945 0.75
      vertex -7.74866 1.98952 -0.75
      vertex -7.74866 1.98952 0.75
    endloop
  endfacet
  facet normal -0.982286 0.187389 0
    outer loop
      vertex -7.93692 1.00267 -0.75
      vertex -7.74866 1.98952 0.75
      vertex -7.74866 1.98952 -0.75
    endloop
  endfacet
  facet normal -0.982286 0.187389 0
    outer loop
      vertex -7.74866 1.98952 0.75
      vertex -7.93692 1.00267 -0.75
      vertex -7.93692 1.00267 0.75
    endloop
  endfacet
  facet normal -0.844331 0.535823 0
    outer loop
      vertex -7.01045 3.85403 -0.75
      vertex -6.47214 4.70228 0.75
      vertex -6.47214 4.70228 -0.75
    endloop
  endfacet
  facet normal -0.844331 0.535823 0
    outer loop
      vertex -6.47214 4.70228 0.75
      vertex -7.01045 3.85403 -0.75
      vertex -7.01045 3.85403 0.75
    endloop
  endfacet
  facet normal -0.125328 0.992115 0
    outer loop
      vertex -0.502324 7.98421 -0.75
      vertex -1.49905 7.8583 0.75
      vertex -0.502324 7.98421 0.75
    endloop
  endfacet
  facet normal -0.125328 0.992115 0
    outer loop
      vertex -1.49905 7.8583 0.75
      vertex -0.502324 7.98421 -0.75
      vertex -1.49905 7.8583 -0.75
    endloop
  endfacet
  facet normal -0.587779 0.809021 0
    outer loop
      vertex -4.28661 6.75462 -0.75
      vertex -5.09939 6.16411 0.75
      vertex -4.28661 6.75462 0.75
    endloop
  endfacet
  facet normal -0.587779 0.809021 0
    outer loop
      vertex -5.09939 6.16411 0.75
      vertex -4.28661 6.75462 -0.75
      vertex -5.09939 6.16411 -0.75
    endloop
  endfacet
  facet normal -0.481759 0.876304 0
    outer loop
      vertex -3.40623 7.23862 -0.75
      vertex -4.28661 6.75462 0.75
      vertex -3.40623 7.23862 0.75
    endloop
  endfacet
  facet normal -0.481759 0.876304 0
    outer loop
      vertex -4.28661 6.75462 0.75
      vertex -3.40623 7.23862 -0.75
      vertex -4.28661 6.75462 -0.75
    endloop
  endfacet
  facet normal 0.998027 0.0627879 0
    outer loop
      vertex 8 0 0.75
      vertex 7.93692 1.00267 -0.75
      vertex 7.93692 1.00267 0.75
    endloop
  endfacet
  facet normal 0.998027 0.0627879 0
    outer loop
      vertex 7.93692 1.00267 -0.75
      vertex 8 0 0.75
      vertex 8 0 -0.75
    endloop
  endfacet
  facet normal 0.951058 -0.309013 0
    outer loop
      vertex 7.43821 -2.945 0.75
      vertex 7.74866 -1.98952 -0.75
      vertex 7.74866 -1.98952 0.75
    endloop
  endfacet
  facet normal 0.951058 -0.309013 0
    outer loop
      vertex 7.74866 -1.98952 -0.75
      vertex 7.43821 -2.945 0.75
      vertex 7.43821 -2.945 -0.75
    endloop
  endfacet
  facet normal 0.770514 -0.637423 0
    outer loop
      vertex 5.83175 -5.47638 0.75
      vertex 6.47214 -4.70228 -0.75
      vertex 6.47214 -4.70228 0.75
    endloop
  endfacet
  facet normal 0.770514 -0.637423 0
    outer loop
      vertex 6.47214 -4.70228 -0.75
      vertex 5.83175 -5.47638 0.75
      vertex 5.83175 -5.47638 -0.75
    endloop
  endfacet
  facet normal 0 -1 0
    outer loop
      vertex -0.502324 -7.98421 -0.75
      vertex 0.502324 -7.98421 0.75
      vertex -0.502324 -7.98421 0.75
    endloop
  endfacet
  facet normal 0 -1 -0
    outer loop
      vertex 0.502324 -7.98421 0.75
      vertex -0.502324 -7.98421 -0.75
      vertex 0.502324 -7.98421 -0.75
    endloop
  endfacet
  facet normal -0.998027 -0.0627879 0
    outer loop
      vertex -7.93692 -1.00267 -0.75
      vertex -8 0 0.75
      vertex -8 0 -0.75
    endloop
  endfacet
  facet normal -0.998027 -0.0627879 0
    outer loop
      vertex -8 0 0.75
      vertex -7.93692 -1.00267 -0.75
      vertex -7.93692 -1.00267 0.75
    endloop
  endfacet
  facet normal 0 0 -1
    outer loop
      vertex 3.84085 0 -0.75
      vertex 8 0 -0.75
      vertex 7.93692 -1.00267 -0.75
    endloop
  endfacet
  facet normal 0 0 -1
    outer loop
      vertex 3.84085 0 -0.75
      vertex 7.93692 -1.00267 -0.75
      vertex 7.74866 -1.98952 -0.75
    endloop
  endfacet
  facet normal 0 0 -1
    outer loop
      vertex 8 0 -0.75
      vertex 3.84085 0 -0.75
      vertex 7.93692 1.00267 -0.75
    endloop
  endfacet
  facet normal 0 0 -1
    outer loop
      vertex 3.84085 0 -0.75
      vertex 7.74866 -1.98952 -0.75
      vertex 7.43821 -2.945 -0.75
    endloop
  endfacet
  facet normal -0 0 -1
    outer loop
      vertex 7.93692 1.00267 -0.75
      vertex 3.84085 0 -0.75
      vertex 7.74866 1.98952 -0.75
    endloop
  endfacet
  facet normal 0 0 -1
    outer loop
      vertex 3.84085 0 -0.75
      vertex 7.43821 -2.945 -0.75
      vertex 7.01045 -3.85403 -0.75
    endloop
  endfacet
  facet normal -0 0 -1
    outer loop
      vertex 7.74866 1.98952 -0.75
      vertex 3.84085 0 -0.75
      vertex 7.43821 2.945 -0.75
    endloop
  endfacet
  facet normal 0 0 -1
    outer loop
      vertex 1.92043 -3.32626 -0.75
      vertex 7.01045 -3.85403 -0.75
      vertex 6.47214 -4.70228 -0.75
    endloop
  endfacet
  facet normal -0 0 -1
    outer loop
      vertex 7.43821 2.945 -0.75
      vertex 3.84085 0 -0.75
      vertex 7.01045 3.85403 -0.75
    endloop
  endfacet
  facet normal 0 0 -1
    outer loop
      vertex 1.92043 -3.32626 -0.75
      vertex 6.47214 -4.70228 -0.75
      vertex 5.83175 -5.47638 -0.75
    endloop
  endfacet
  facet normal 0 0 -1
    outer loop
      vertex 1.92043 3.32626 -0.75
      vertex 7.01045 3.85403 -0.75
      vertex 3.84085 0 -0.75
    endloop
  endfacet
  facet normal 0 0 -1
    outer loop
      vertex 1.92043 -3.32626 -0.75
      vertex 5.83175 -5.47638 -0.75
      vertex 5.09939 -6.16411 -0.75
    endloop
  endfacet
  facet normal -0 0 -1
    outer loop
      vertex 7.01045 3.85403 -0.75
      vertex 1.92043 3.32626 -0.75
      vertex 6.47214 4.70228 -0.75
    endloop
  endfacet
  facet normal 0 0 -1
    outer loop
      vertex 1.92043 -3.32626 -0.75
      vertex 5.09939 -6.16411 -0.75
      vertex 4.28661 -6.75462 -0.75
    endloop
  endfacet
  facet normal -0 0 -1
    outer loop
      vertex 6.47214 4.70228 -0.75
      vertex 1.92043 3.32626 -0.75
      vertex 5.83175 5.47638 -0.75
    endloop
  endfacet
  facet normal -0 0 -1
    outer loop
      vertex 5.83175 5.47638 -0.75
      vertex 1.92043 3.32626 -0.75
      vertex 5.09939 6.16411 -0.75
    endloop
  endfacet
  facet normal 0 0 -1
    outer loop
      vertex 1.92043 -3.32626 -0.75
      vertex 4.28661 -6.75462 -0.75
      vertex 3.40623 -7.23862 -0.75
    endloop
  endfacet
  facet normal 0 0 -1
    outer loop
      vertex 1.92043 -3.32626 -0.75
      vertex 3.40623 -7.23862 -0.75
      vertex 2.47214 -7.60845 -0.75
    endloop
  endfacet
  facet normal 0 0 -1
    outer loop
      vertex 7.01045 -3.85403 -0.75
      vertex 1.92043 -3.32626 -0.75
      vertex 3.84085 0 -0.75
    endloop
  endfacet
  facet normal 0 0 -1
    outer loop
      vertex 1.49905 -7.8583 -0.75
      vertex 1.92043 -3.32626 -0.75
      vertex 2.47214 -7.60845 -0.75
    endloop
  endfacet
  facet normal 0 0 -1
    outer loop
      vertex 0.502324 -7.98421 -0.75
      vertex 1.92043 -3.32626 -0.75
      vertex 1.49905 -7.8583 -0.75
    endloop
  endfacet
  facet normal 0 0 -1
    outer loop
      vertex -0.502324 -7.98421 -0.75
      vertex 1.92043 -3.32626 -0.75
      vertex 0.502324 -7.98421 -0.75
    endloop
  endfacet
  facet normal 0 0 -1
    outer loop
      vertex -1.92043 -3.32626 -0.75
      vertex -0.502324 -7.98421 -0.75
      vertex -1.49905 -7.8583 -0.75
    endloop
  endfacet
  facet normal 0 0 -1
    outer loop
      vertex -0.502324 -7.98421 -0.75
      vertex -1.92043 -3.32626 -0.75
      vertex 1.92043 -3.32626 -0.75
    endloop
  endfacet
  facet normal 0 0 -1
    outer loop
      vertex -2.47214 -7.60845 -0.75
      vertex -1.92043 -3.32626 -0.75
      vertex -1.49905 -7.8583 -0.75
    endloop
  endfacet
  facet normal 0 0 -1
    outer loop
      vertex -3.40623 -7.23862 -0.75
      vertex -1.92043 -3.32626 -0.75
      vertex -2.47214 -7.60845 -0.75
    endloop
  endfacet
  facet normal 0 0 -1
    outer loop
      vertex -4.28661 -6.75462 -0.75
      vertex -1.92043 -3.32626 -0.75
      vertex -3.40623 -7.23862 -0.75
    endloop
  endfacet
  facet normal 0 0 -1
    outer loop
      vertex -5.09939 -6.16411 -0.75
      vertex -1.92043 -3.32626 -0.75
      vertex -4.28661 -6.75462 -0.75
    endloop
  endfacet
  facet normal -0 0 -1
    outer loop
      vertex 5.09939 6.16411 -0.75
      vertex 1.92043 3.32626 -0.75
      vertex 4.28661 6.75462 -0.75
    endloop
  endfacet
  facet normal -0 0 -1
    outer loop
      vertex 4.28661 6.75462 -0.75
      vertex 1.92043 3.32626 -0.75
      vertex 3.40623 7.23862 -0.75
    endloop
  endfacet
  facet normal -0 0 -1
    outer loop
      vertex 3.40623 7.23862 -0.75
      vertex 1.92043 3.32626 -0.75
      vertex 2.47214 7.60845 -0.75
    endloop
  endfacet
  facet normal 0 0 -1
    outer loop
      vertex 1.92043 3.32626 -0.75
      vertex 1.49905 7.8583 -0.75
      vertex 2.47214 7.60845 -0.75
    endloop
  endfacet
  facet normal 0 0 -1
    outer loop
      vertex 1.92043 3.32626 -0.75
      vertex 0.502324 7.98421 -0.75
      vertex 1.49905 7.8583 -0.75
    endloop
  endfacet
  facet normal 0 0 -1
    outer loop
      vertex 1.92043 3.32626 -0.75
      vertex -0.502324 7.98421 -0.75
      vertex 0.502324 7.98421 -0.75
    endloop
  endfacet
  facet normal 0 0 -1
    outer loop
      vertex -1.92043 3.32626 -0.75
      vertex -0.502324 7.98421 -0.75
      vertex 1.92043 3.32626 -0.75
    endloop
  endfacet
  facet normal 0 0 -1
    outer loop
      vertex -0.502324 7.98421 -0.75
      vertex -1.92043 3.32626 -0.75
      vertex -1.49905 7.8583 -0.75
    endloop
  endfacet
  facet normal 0 0 -1
    outer loop
      vertex -1.92043 3.32626 -0.75
      vertex -2.47214 7.60845 -0.75
      vertex -1.49905 7.8583 -0.75
    endloop
  endfacet
  facet normal 0 0 -1
    outer loop
      vertex -1.92043 3.32626 -0.75
      vertex -3.40623 7.23862 -0.75
      vertex -2.47214 7.60845 -0.75
    endloop
  endfacet
  facet normal 0 0 -1
    outer loop
      vertex -7.01045 3.85403 -0.75
      vertex -1.92043 3.32626 -0.75
      vertex -3.84085 0 -0.75
    endloop
  endfacet
  facet normal 0 0 -1
    outer loop
      vertex -5.83175 -5.47638 -0.75
      vertex -1.92043 -3.32626 -0.75
      vertex -5.09939 -6.16411 -0.75
    endloop
  endfacet
  facet normal 0 0 -1
    outer loop
      vertex -1.92043 3.32626 -0.75
      vertex -4.28661 6.75462 -0.75
      vertex -3.40623 7.23862 -0.75
    endloop
  endfacet
  facet normal 0 0 -1
    outer loop
      vertex -6.47214 -4.70228 -0.75
      vertex -1.92043 -3.32626 -0.75
      vertex -5.83175 -5.47638 -0.75
    endloop
  endfacet
  facet normal 0 0 -1
    outer loop
      vertex -1.92043 3.32626 -0.75
      vertex -5.09939 6.16411 -0.75
      vertex -4.28661 6.75462 -0.75
    endloop
  endfacet
  facet normal 0 0 -1
    outer loop
      vertex -7.01045 -3.85403 -0.75
      vertex -1.92043 -3.32626 -0.75
      vertex -6.47214 -4.70228 -0.75
    endloop
  endfacet
  facet normal 0 0 -1
    outer loop
      vertex -1.92043 3.32626 -0.75
      vertex -5.83175 5.47638 -0.75
      vertex -5.09939 6.16411 -0.75
    endloop
  endfacet
  facet normal -0 0 -1
    outer loop
      vertex -1.92043 -3.32626 -0.75
      vertex -7.01045 -3.85403 -0.75
      vertex -3.84085 0 -0.75
    endloop
  endfacet
  facet normal 0 0 -1
    outer loop
      vertex -1.92043 3.32626 -0.75
      vertex -6.47214 4.70228 -0.75
      vertex -5.83175 5.47638 -0.75
    endloop
  endfacet
  facet normal 0 0 -1
    outer loop
      vertex -7.43821 -2.945 -0.75
      vertex -3.84085 0 -0.75
      vertex -7.01045 -3.85403 -0.75
    endloop
  endfacet
  facet normal 0 0 -1
    outer loop
      vertex -1.92043 3.32626 -0.75
      vertex -7.01045 3.85403 -0.75
      vertex -6.47214 4.70228 -0.75
    endloop
  endfacet
  facet normal 0 0 -1
    outer loop
      vertex -7.74866 -1.98952 -0.75
      vertex -3.84085 0 -0.75
      vertex -7.43821 -2.945 -0.75
    endloop
  endfacet
  facet normal 0 0 -1
    outer loop
      vertex -3.84085 0 -0.75
      vertex -7.43821 2.945 -0.75
      vertex -7.01045 3.85403 -0.75
    endloop
  endfacet
  facet normal 0 0 -1
    outer loop
      vertex -7.93692 -1.00267 -0.75
      vertex -3.84085 0 -0.75
      vertex -7.74866 -1.98952 -0.75
    endloop
  endfacet
  facet normal 0 0 -1
    outer loop
      vertex -3.84085 0 -0.75
      vertex -7.74866 1.98952 -0.75
      vertex -7.43821 2.945 -0.75
    endloop
  endfacet
  facet normal 0 0 -1
    outer loop
      vertex -8 0 -0.75
      vertex -3.84085 0 -0.75
      vertex -7.93692 -1.00267 -0.75
    endloop
  endfacet
  facet normal 0 0 -1
    outer loop
      vertex -3.84085 0 -0.75
      vertex -7.93692 1.00267 -0.75
      vertex -7.74866 1.98952 -0.75
    endloop
  endfacet
  facet normal 0 0 -1
    outer loop
      vertex -3.84085 0 -0.75
      vertex -8 0 -0.75
      vertex -7.93692 1.00267 -0.75
    endloop
  endfacet
  facet normal -0.770514 -0.637423 0
    outer loop
      vertex -5.83175 -5.47638 -0.75
      vertex -6.47214 -4.70228 0.75
      vertex -6.47214 -4.70228 -0.75
    endloop
  endfacet
  facet normal -0.770514 -0.637423 0
    outer loop
      vertex -6.47214 -4.70228 0.75
      vertex -5.83175 -5.47638 -0.75
      vertex -5.83175 -5.47638 0.75
    endloop
  endfacet
  facet normal 0.125328 -0.992115 0
    outer loop
      vertex 0.502324 -7.98421 -0.75
      vertex 1.49905 -7.8583 0.75
      vertex 0.502324 -7.98421 0.75
    endloop
  endfacet
  facet normal 0.125328 -0.992115 0
    outer loop
      vertex 1.49905 -7.8583 0.75
      vertex 0.502324 -7.98421 -0.75
      vertex 1.49905 -7.8583 -0.75
    endloop
  endfacet
  facet normal 0.982286 0.187389 0
    outer loop
      vertex 7.93692 1.00267 0.75
      vertex 7.74866 1.98952 -0.75
      vertex 7.74866 1.98952 0.75
    endloop
  endfacet
  facet normal 0.982286 0.187389 0
    outer loop
      vertex 7.74866 1.98952 -0.75
      vertex 7.93692 1.00267 0.75
      vertex 7.93692 1.00267 -0.75
    endloop
  endfacet
  facet normal 0.844331 -0.535823 0
    outer loop
      vertex 6.47214 -4.70228 0.75
      vertex 7.01045 -3.85403 -0.75
      vertex 7.01045 -3.85403 0.75
    endloop
  endfacet
  facet normal 0.844331 -0.535823 0
    outer loop
      vertex 7.01045 -3.85403 -0.75
      vertex 6.47214 -4.70228 0.75
      vertex 6.47214 -4.70228 -0.75
    endloop
  endfacet
  facet normal -0.248693 -0.968582 0
    outer loop
      vertex -2.47214 -7.60845 -0.75
      vertex -1.49905 -7.8583 0.75
      vertex -2.47214 -7.60845 0.75
    endloop
  endfacet
  facet normal -0.248693 -0.968582 -0
    outer loop
      vertex -1.49905 -7.8583 0.75
      vertex -2.47214 -7.60845 -0.75
      vertex -1.49905 -7.8583 -0.75
    endloop
  endfacet
  facet normal -0.951058 -0.309013 0
    outer loop
      vertex -7.43821 -2.945 -0.75
      vertex -7.74866 -1.98952 0.75
      vertex -7.74866 -1.98952 -0.75
    endloop
  endfacet
  facet normal -0.951058 -0.309013 0
    outer loop
      vertex -7.74866 -1.98952 0.75
      vertex -7.43821 -2.945 -0.75
      vertex -7.43821 -2.945 0.75
    endloop
  endfacet
  facet normal -0.982286 -0.187389 0
    outer loop
      vertex -7.74866 -1.98952 -0.75
      vertex -7.93692 -1.00267 0.75
      vertex -7.93692 -1.00267 -0.75
    endloop
  endfacet
  facet normal -0.982286 -0.187389 0
    outer loop
      vertex -7.93692 -1.00267 0.75
      vertex -7.74866 -1.98952 -0.75
      vertex -7.74866 -1.98952 0.75
    endloop
  endfacet
  facet normal 0.368122 -0.929777 0
    outer loop
      vertex 2.47214 -7.60845 -0.75
      vertex 3.40623 -7.23862 0.75
      vertex 2.47214 -7.60845 0.75
    endloop
  endfacet
  facet normal 0.368122 -0.929777 0
    outer loop
      vertex 3.40623 -7.23862 0.75
      vertex 2.47214 -7.60845 -0.75
      vertex 3.40623 -7.23862 -0.75
    endloop
  endfacet
  facet normal 0.248693 -0.968582 0
    outer loop
      vertex 1.49905 -7.8583 -0.75
      vertex 2.47214 -7.60845 0.75
      vertex 1.49905 -7.8583 0.75
    endloop
  endfacet
  facet normal 0.248693 -0.968582 0
    outer loop
      vertex 2.47214 -7.60845 0.75
      vertex 1.49905 -7.8583 -0.75
      vertex 2.47214 -7.60845 -0.75
    endloop
  endfacet
  facet normal 0.684546 -0.72897 0
    outer loop
      vertex 5.09939 -6.16411 -0.75
      vertex 5.83175 -5.47638 0.75
      vertex 5.09939 -6.16411 0.75
    endloop
  endfacet
  facet normal 0.684546 -0.72897 0
    outer loop
      vertex 5.83175 -5.47638 0.75
      vertex 5.09939 -6.16411 -0.75
      vertex 5.83175 -5.47638 -0.75
    endloop
  endfacet
  facet normal 0.982286 -0.187389 0
    outer loop
      vertex 7.74866 -1.98952 0.75
      vertex 7.93692 -1.00267 -0.75
      vertex 7.93692 -1.00267 0.75
    endloop
  endfacet
  facet normal 0.982286 -0.187389 0
    outer loop
      vertex 7.93692 -1.00267 -0.75
      vertex 7.74866 -1.98952 0.75
      vertex 7.74866 -1.98952 -0.75
    endloop
  endfacet
  facet normal -0.125328 -0.992115 0
    outer loop
      vertex -1.49905 -7.8583 -0.75
      vertex -0.502324 -7.98421 0.75
      vertex -1.49905 -7.8583 0.75
    endloop
  endfacet
  facet normal -0.125328 -0.992115 -0
    outer loop
      vertex -0.502324 -7.98421 0.75
      vertex -1.49905 -7.8583 -0.75
      vertex -0.502324 -7.98421 -0.75
    endloop
  endfacet
  facet normal -0.481759 -0.876304 0
    outer loop
      vertex -4.28661 -6.75462 -0.75
      vertex -3.40623 -7.23862 0.75
      vertex -4.28661 -6.75462 0.75
    endloop
  endfacet
  facet normal -0.481759 -0.876304 -0
    outer loop
      vertex -3.40623 -7.23862 0.75
      vertex -4.28661 -6.75462 -0.75
      vertex -3.40623 -7.23862 -0.75
    endloop
  endfacet
  facet normal -0.844331 -0.535823 0
    outer loop
      vertex -6.47214 -4.70228 -0.75
      vertex -7.01045 -3.85403 0.75
      vertex -7.01045 -3.85403 -0.75
    endloop
  endfacet
  facet normal -0.844331 -0.535823 0
    outer loop
      vertex -7.01045 -3.85403 0.75
      vertex -6.47214 -4.70228 -0.75
      vertex -6.47214 -4.70228 0.75
    endloop
  endfacet
  facet normal 0.587779 -0.809021 0
    outer loop
      vertex 4.28661 -6.75462 -0.75
      vertex 5.09939 -6.16411 0.75
      vertex 4.28661 -6.75462 0.75
    endloop
  endfacet
  facet normal 0.587779 -0.809021 0
    outer loop
      vertex 5.09939 -6.16411 0.75
      vertex 4.28661 -6.75462 -0.75
      vertex 5.09939 -6.16411 -0.75
    endloop
  endfacet
  facet normal -0.587779 -0.809021 0
    outer loop
      vertex -5.09939 -6.16411 -0.75
      vertex -4.28661 -6.75462 0.75
      vertex -5.09939 -6.16411 0.75
    endloop
  endfacet
  facet normal -0.587779 -0.809021 -0
    outer loop
      vertex -4.28661 -6.75462 0.75
      vertex -5.09939 -6.16411 -0.75
      vertex -4.28661 -6.75462 -0.75
    endloop
  endfacet
  facet normal -0.368122 -0.929777 0
    outer loop
      vertex -3.40623 -7.23862 -0.75
      vertex -2.47214 -7.60845 0.75
      vertex -3.40623 -7.23862 0.75
    endloop
  endfacet
  facet normal -0.368122 -0.929777 -0
    outer loop
      vertex -2.47214 -7.60845 0.75
      vertex -3.40623 -7.23862 -0.75
      vertex -2.47214 -7.60845 -0.75
    endloop
  endfacet
  facet normal 0.866025 -0.500001 0
    outer loop
      vertex 1.92043 -3.32626 -0.75
      vertex 3.84085 0 -6
      vertex 3.84085 0 -0.75
    endloop
  endfacet
  facet normal 0.866025 -0.500001 0
    outer loop
      vertex 3.84085 0 -6
      vertex 1.92043 -3.32626 -0.75
      vertex 1.92043 -3.32626 -6
    endloop
  endfacet
  facet normal 0 0 -1
    outer loop
      vertex 1.92043 -3.32626 -6
      vertex 1.92043 3.32626 -6
      vertex 3.84085 0 -6
    endloop
  endfacet
  facet normal 0 0 -1
    outer loop
      vertex -1.92043 -3.32626 -6
      vertex 1.92043 3.32626 -6
      vertex 1.92043 -3.32626 -6
    endloop
  endfacet
  facet normal 0 0 -1
    outer loop
      vertex -1.92043 -3.32626 -6
      vertex -1.92043 3.32626 -6
      vertex 1.92043 3.32626 -6
    endloop
  endfacet
  facet normal 0 -0 -1
    outer loop
      vertex -1.92043 3.32626 -6
      vertex -1.92043 -3.32626 -6
      vertex -3.84085 0 -6
    endloop
  endfacet
  facet normal -0.866025 -0.500001 0
    outer loop
      vertex -1.92043 -3.32626 -6
      vertex -3.84085 0 -0.75
      vertex -3.84085 0 -6
    endloop
  endfacet
  facet normal -0.866025 -0.500001 0
    outer loop
      vertex -3.84085 0 -0.75
      vertex -1.92043 -3.32626 -6
      vertex -1.92043 -3.32626 -0.75
    endloop
  endfacet
  facet normal 0 -1 0
    outer loop
      vertex -1.92043 -3.32626 -6
      vertex 1.92043 -3.32626 -0.75
      vertex -1.92043 -3.32626 -0.75
    endloop
  endfacet
  facet normal 0 -1 -0
    outer loop
      vertex 1.92043 -3.32626 -0.75
      vertex -1.92043 -3.32626 -6
      vertex 1.92043 -3.32626 -6
    endloop
  endfacet
  facet normal -0.866025 0.500001 0
    outer loop
      vertex -3.84085 0 -6
      vertex -1.92043 3.32626 -0.75
      vertex -1.92043 3.32626 -6
    endloop
  endfacet
  facet normal -0.866025 0.500001 0
    outer loop
      vertex -1.92043 3.32626 -0.75
      vertex -3.84085 0 -6
      vertex -3.84085 0 -0.75
    endloop
  endfacet
  facet normal 0 1 -0
    outer loop
      vertex 1.92043 3.32626 -6
      vertex -1.92043 3.32626 -0.75
      vertex 1.92043 3.32626 -0.75
    endloop
  endfacet
  facet normal 0 1 0
    outer loop
      vertex -1.92043 3.32626 -0.75
      vertex 1.92043 3.32626 -6
      vertex -1.92043 3.32626 -6
    endloop
  endfacet
  facet normal 0.866025 0.500001 0
    outer loop
      vertex 3.84085 0 -0.75
      vertex 1.92043 3.32626 -6
      vertex 1.92043 3.32626 -0.75
    endloop
  endfacet
  facet normal 0.866025 0.500001 0
    outer loop
      vertex 1.92043 3.32626 -6
      vertex 3.84085 0 -0.75
      vertex 3.84085 0 -6
    endloop
  endfacet
  facet normal 1 -0 0
    outer loop
      vertex -4 -3 0.75
      vertex -4 -1 0.25
      vertex -4 -1 0.75
    endloop
  endfacet
  facet normal 1 0 0
    outer loop
      vertex -4 -1 0.25
      vertex -4 -3 0.75
      vertex -4 -3 0.25
    endloop
  endfacet
  facet normal -1 0 0
    outer loop
      vertex 4 -3 0.25
      vertex 4 -1 0.75
      vertex 4 -1 0.25
    endloop
  endfacet
  facet normal -1 -0 0
    outer loop
      vertex 4 -1 0.75
      vertex 4 -3 0.25
      vertex 4 -3 0.75
    endloop
  endfacet
  facet normal 0 -1 0
    outer loop
      vertex -4 -1 0.25
      vertex 4 -1 0.75
      vertex -4 -1 0.75
    endloop
  endfacet
  facet normal 0 -1 -0
    outer loop
      vertex 4 -1 0.75
      vertex -4 -1 0.25
      vertex 4 -1 0.25
    endloop
  endfacet
  facet normal -0 0 1
    outer loop
      vertex -4 -1 0.25
      vertex 4 -3 0.25
      vertex 4 -1 0.25
    endloop
  endfacet
  facet normal 0 0 1
    outer loop
      vertex 4 -3 0.25
      vertex -4 -1 0.25
      vertex -4 -3 0.25
    endloop
  endfacet
  facet normal 0 1 -0
    outer loop
      vertex 4 -3 0.25
      vertex -4 -3 0.75
      vertex 4 -3 0.75
    endloop
  endfacet
  facet normal 0 1 0
    outer loop
      vertex -4 -3 0.75
      vertex 4 -3 0.25
      vertex -4 -3 0.25
    endloop
  endfacet
  facet normal -0 0 1
    outer loop
      vertex -0.903824 3.41405 0.25
      vertex 0.353409 2.77626 0.25
      vertex 0.353409 3.41405 0.25
    endloop
  endfacet
  facet normal 0 0 1
    outer loop
      vertex -1.60263 2.77626 0.25
      vertex -0.903824 3.41405 0.25
      vertex -1.60263 3.42017 0.25
    endloop
  endfacet
  facet normal 0 0 1
    outer loop
      vertex -0.903824 3.41405 0.25
      vertex -1.60263 2.77626 0.25
      vertex 0.353409 2.77626 0.25
    endloop
  endfacet
  facet normal -0 0 1
    outer loop
      vertex 0.353409 4.82083 0.25
      vertex 1.17123 3.41405 0.25
      vertex 1.17123 6.20012 0.25
    endloop
  endfacet
  facet normal 0 0 1
    outer loop
      vertex 0.353409 3.41405 0.25
      vertex 1.17123 3.41405 0.25
      vertex 0.353409 4.82083 0.25
    endloop
  endfacet
  facet normal 0 0 1
    outer loop
      vertex 0.377014 5.38242 0.25
      vertex 1.17123 6.20012 0.25
      vertex 0.380859 5.425 0.25
    endloop
  endfacet
  facet normal 0 0 1
    outer loop
      vertex 0.213058 6.20012 0.25
      vertex 0.355576 5.37306 0.25
      vertex 0.380859 5.425 0.25
    endloop
  endfacet
  facet normal 0 0 1
    outer loop
      vertex 0.355576 5.37306 0.25
      vertex 0.213058 6.20012 0.25
      vertex 0.325058 5.3149 0.25
    endloop
  endfacet
  facet normal 0 0 1
    outer loop
      vertex 0.325058 5.3149 0.25
      vertex 0.213058 6.20012 0.25
      vertex 0.289322 5.25052 0.25
    endloop
  endfacet
  facet normal -0 0 1
    outer loop
      vertex 0.213058 6.20012 0.25
      vertex 0.380859 5.425 0.25
      vertex 1.17123 6.20012 0.25
    endloop
  endfacet
  facet normal 0 0 1
    outer loop
      vertex 0.289322 5.25052 0.25
      vertex 0.213058 6.20012 0.25
      vertex 0.248337 5.1799 0.25
    endloop
  endfacet
  facet normal 0 0 1
    outer loop
      vertex 0.213058 6.20012 0.25
      vertex 0.202133 5.10304 0.25
      vertex 0.248337 5.1799 0.25
    endloop
  endfacet
  facet normal 0 0 1
    outer loop
      vertex 0.213058 6.20012 0.25
      vertex 0.150696 5.01997 0.25
      vertex 0.202133 5.10304 0.25
    endloop
  endfacet
  facet normal 0 0 1
    outer loop
      vertex 0.213058 6.20012 0.25
      vertex 0.0940247 4.93066 0.25
      vertex 0.150696 5.01997 0.25
    endloop
  endfacet
  facet normal 0 0 1
    outer loop
      vertex -1.60263 3.42017 0.25
      vertex 0.0940247 4.93066 0.25
      vertex 0.213058 6.20012 0.25
    endloop
  endfacet
  facet normal 0 0 1
    outer loop
      vertex 0.0940247 4.93066 0.25
      vertex -1.60263 3.42017 0.25
      vertex -0.903824 3.41405 0.25
    endloop
  endfacet
  facet normal -0 0 1
    outer loop
      vertex 1.17123 3.41405 0.25
      vertex 1.74495 2.77626 0.25
      vertex 1.74495 3.41405 0.25
    endloop
  endfacet
  facet normal 0 0 1
    outer loop
      vertex 1.74495 2.77626 0.25
      vertex 1.17123 3.41405 0.25
      vertex 1.17123 2.77626 0.25
    endloop
  endfacet
  facet normal 0 0 1
    outer loop
      vertex 0.377014 5.38242 0.25
      vertex 0.380859 5.425 0.25
      vertex 0.379028 5.40651 0.25
    endloop
  endfacet
  facet normal 0 0 1
    outer loop
      vertex 0.374802 5.35271 0.25
      vertex 1.17123 6.20012 0.25
      vertex 0.377014 5.38242 0.25
    endloop
  endfacet
  facet normal 0 0 1
    outer loop
      vertex 0.372406 5.3174 0.25
      vertex 1.17123 6.20012 0.25
      vertex 0.374802 5.35271 0.25
    endloop
  endfacet
  facet normal 0 0 1
    outer loop
      vertex 0.369812 5.27647 0.25
      vertex 1.17123 6.20012 0.25
      vertex 0.372406 5.3174 0.25
    endloop
  endfacet
  facet normal 0 0 1
    outer loop
      vertex 0.367035 5.22995 0.25
      vertex 1.17123 6.20012 0.25
      vertex 0.369812 5.27647 0.25
    endloop
  endfacet
  facet normal 0 0 1
    outer loop
      vertex 0.364075 5.17781 0.25
      vertex 1.17123 6.20012 0.25
      vertex 0.367035 5.22995 0.25
    endloop
  endfacet
  facet normal 0 0 1
    outer loop
      vertex 0.361237 5.12344 0.25
      vertex 1.17123 6.20012 0.25
      vertex 0.364075 5.17781 0.25
    endloop
  endfacet
  facet normal 0 0 1
    outer loop
      vertex 0.358856 5.07021 0.25
      vertex 1.17123 6.20012 0.25
      vertex 0.361237 5.12344 0.25
    endloop
  endfacet
  facet normal 0 0 1
    outer loop
      vertex 0.356888 5.01808 0.25
      vertex 1.17123 6.20012 0.25
      vertex 0.358856 5.07021 0.25
    endloop
  endfacet
  facet normal 0 0 1
    outer loop
      vertex 0.355362 4.96709 0.25
      vertex 1.17123 6.20012 0.25
      vertex 0.356888 5.01808 0.25
    endloop
  endfacet
  facet normal 0 0 1
    outer loop
      vertex 0.354279 4.91721 0.25
      vertex 1.17123 6.20012 0.25
      vertex 0.355362 4.96709 0.25
    endloop
  endfacet
  facet normal 0 0 1
    outer loop
      vertex 0.353622 4.86845 0.25
      vertex 1.17123 6.20012 0.25
      vertex 0.354279 4.91721 0.25
    endloop
  endfacet
  facet normal 0 0 1
    outer loop
      vertex 0.353409 4.82083 0.25
      vertex 1.17123 6.20012 0.25
      vertex 0.353622 4.86845 0.25
    endloop
  endfacet
  facet normal 0 0 1
    outer loop
      vertex 1.17123 3.41405 0.25
      vertex 0.353409 3.41405 0.25
      vertex 1.17123 2.77626 0.25
    endloop
  endfacet
  facet normal 0 0 1
    outer loop
      vertex 0.353409 2.77626 0.25
      vertex 1.17123 2.77626 0.25
      vertex 0.353409 3.41405 0.25
    endloop
  endfacet
  facet normal 0 0 1
    outer loop
      vertex 1.17123 2.77626 0.25
      vertex 0.353409 2.77626 0.25
      vertex 1.17123 1.90048 0.25
    endloop
  endfacet
  facet normal 0 0 1
    outer loop
      vertex 1.17123 1.90048 0.25
      vertex 0.353409 2.77626 0.25
      vertex 0.353409 1.90048 0.25
    endloop
  endfacet
  facet normal 0 1 -0
    outer loop
      vertex 1.74495 2.77626 0.25
      vertex 1.17123 2.77626 0.75
      vertex 1.74495 2.77626 0.75
    endloop
  endfacet
  facet normal 0 1 0
    outer loop
      vertex 1.17123 2.77626 0.75
      vertex 1.74495 2.77626 0.25
      vertex 1.17123 2.77626 0.25
    endloop
  endfacet
  facet normal -1 0 0
    outer loop
      vertex 1.74495 2.77626 0.25
      vertex 1.74495 3.41405 0.75
      vertex 1.74495 3.41405 0.25
    endloop
  endfacet
  facet normal -1 -0 0
    outer loop
      vertex 1.74495 3.41405 0.75
      vertex 1.74495 2.77626 0.25
      vertex 1.74495 2.77626 0.75
    endloop
  endfacet
  facet normal 0 -1 0
    outer loop
      vertex 1.17123 3.41405 0.25
      vertex 1.74495 3.41405 0.75
      vertex 1.17123 3.41405 0.75
    endloop
  endfacet
  facet normal 0 -1 -0
    outer loop
      vertex 1.74495 3.41405 0.75
      vertex 1.17123 3.41405 0.25
      vertex 1.74495 3.41405 0.25
    endloop
  endfacet
  facet normal -1 0 0
    outer loop
      vertex 1.17123 3.41405 0.25
      vertex 1.17123 6.20012 0.75
      vertex 1.17123 6.20012 0.25
    endloop
  endfacet
  facet normal -1 -0 0
    outer loop
      vertex 1.17123 6.20012 0.75
      vertex 1.17123 3.41405 0.25
      vertex 1.17123 3.41405 0.75
    endloop
  endfacet
  facet normal 0 -1 0
    outer loop
      vertex 0.213058 6.20012 0.25
      vertex 1.17123 6.20012 0.75
      vertex 0.213058 6.20012 0.75
    endloop
  endfacet
  facet normal 0 -1 -0
    outer loop
      vertex 1.17123 6.20012 0.75
      vertex 0.213058 6.20012 0.25
      vertex 1.17123 6.20012 0.25
    endloop
  endfacet
  facet normal 0.837241 -0.546833 0
    outer loop
      vertex -1.60263 3.42017 0.75
      vertex 0.213058 6.20012 0.25
      vertex 0.213058 6.20012 0.75
    endloop
  endfacet
  facet normal 0.837241 -0.546833 0
    outer loop
      vertex 0.213058 6.20012 0.25
      vertex -1.60263 3.42017 0.75
      vertex -1.60263 3.42017 0.25
    endloop
  endfacet
  facet normal 1 -0 0
    outer loop
      vertex -1.60263 2.77626 0.75
      vertex -1.60263 3.42017 0.25
      vertex -1.60263 3.42017 0.75
    endloop
  endfacet
  facet normal 1 0 0
    outer loop
      vertex -1.60263 3.42017 0.25
      vertex -1.60263 2.77626 0.75
      vertex -1.60263 2.77626 0.25
    endloop
  endfacet
  facet normal 0 1 -0
    outer loop
      vertex 0.353409 2.77626 0.25
      vertex -1.60263 2.77626 0.75
      vertex 0.353409 2.77626 0.75
    endloop
  endfacet
  facet normal 0 1 0
    outer loop
      vertex -1.60263 2.77626 0.75
      vertex 0.353409 2.77626 0.25
      vertex -1.60263 2.77626 0.25
    endloop
  endfacet
  facet normal 1 -0 0
    outer loop
      vertex 0.353409 1.90048 0.75
      vertex 0.353409 2.77626 0.25
      vertex 0.353409 2.77626 0.75
    endloop
  endfacet
  facet normal 1 0 0
    outer loop
      vertex 0.353409 2.77626 0.25
      vertex 0.353409 1.90048 0.75
      vertex 0.353409 1.90048 0.25
    endloop
  endfacet
  facet normal 0 1 -0
    outer loop
      vertex 1.17123 1.90048 0.25
      vertex 0.353409 1.90048 0.75
      vertex 1.17123 1.90048 0.75
    endloop
  endfacet
  facet normal 0 1 0
    outer loop
      vertex 0.353409 1.90048 0.75
      vertex 1.17123 1.90048 0.25
      vertex 0.353409 1.90048 0.25
    endloop
  endfacet
  facet normal -1 0 0
    outer loop
      vertex 1.17123 1.90048 0.25
      vertex 1.17123 2.77626 0.75
      vertex 1.17123 2.77626 0.25
    endloop
  endfacet
  facet normal -1 -0 0
    outer loop
      vertex 1.17123 2.77626 0.75
      vertex 1.17123 1.90048 0.25
      vertex 1.17123 1.90048 0.75
    endloop
  endfacet
  facet normal -0.835397 0.549647 0
    outer loop
      vertex -0.903824 3.41405 0.25
      vertex 0.0940247 4.93066 0.75
      vertex 0.0940247 4.93066 0.25
    endloop
  endfacet
  facet normal -0.835397 0.549647 0
    outer loop
      vertex 0.0940247 4.93066 0.75
      vertex -0.903824 3.41405 0.25
      vertex -0.903824 3.41405 0.75
    endloop
  endfacet
  facet normal -0.844356 0.535783 0
    outer loop
      vertex 0.0940247 4.93066 0.25
      vertex 0.150696 5.01997 0.75
      vertex 0.150696 5.01997 0.25
    endloop
  endfacet
  facet normal -0.844356 0.535783 0
    outer loop
      vertex 0.150696 5.01997 0.75
      vertex 0.0940247 4.93066 0.25
      vertex 0.0940247 4.93066 0.75
    endloop
  endfacet
  facet normal -0.850207 0.526449 0
    outer loop
      vertex 0.150696 5.01997 0.25
      vertex 0.202133 5.10304 0.75
      vertex 0.202133 5.10304 0.25
    endloop
  endfacet
  facet normal -0.850207 0.526449 0
    outer loop
      vertex 0.202133 5.10304 0.75
      vertex 0.150696 5.01997 0.25
      vertex 0.150696 5.01997 0.75
    endloop
  endfacet
  facet normal -0.85706 0.515217 0
    outer loop
      vertex 0.202133 5.10304 0.25
      vertex 0.248337 5.1799 0.75
      vertex 0.248337 5.1799 0.25
    endloop
  endfacet
  facet normal -0.85706 0.515217 0
    outer loop
      vertex 0.248337 5.1799 0.75
      vertex 0.202133 5.10304 0.25
      vertex 0.202133 5.10304 0.75
    endloop
  endfacet
  facet normal -0.864896 0.501951 0
    outer loop
      vertex 0.248337 5.1799 0.25
      vertex 0.289322 5.25052 0.75
      vertex 0.289322 5.25052 0.25
    endloop
  endfacet
  facet normal -0.864896 0.501951 0
    outer loop
      vertex 0.289322 5.25052 0.75
      vertex 0.248337 5.1799 0.25
      vertex 0.248337 5.1799 0.75
    endloop
  endfacet
  facet normal -0.874334 0.485325 0
    outer loop
      vertex 0.289322 5.25052 0.25
      vertex 0.325058 5.3149 0.75
      vertex 0.325058 5.3149 0.25
    endloop
  endfacet
  facet normal -0.874334 0.485325 0
    outer loop
      vertex 0.325058 5.3149 0.75
      vertex 0.289322 5.25052 0.25
      vertex 0.289322 5.25052 0.75
    endloop
  endfacet
  facet normal -0.885498 0.464643 0
    outer loop
      vertex 0.325058 5.3149 0.25
      vertex 0.355576 5.37306 0.75
      vertex 0.355576 5.37306 0.25
    endloop
  endfacet
  facet normal -0.885498 0.464643 0
    outer loop
      vertex 0.355576 5.37306 0.75
      vertex 0.325058 5.3149 0.25
      vertex 0.325058 5.3149 0.75
    endloop
  endfacet
  facet normal -0.899134 0.437674 0
    outer loop
      vertex 0.355576 5.37306 0.25
      vertex 0.380859 5.425 0.75
      vertex 0.380859 5.425 0.25
    endloop
  endfacet
  facet normal -0.899134 0.437674 0
    outer loop
      vertex 0.380859 5.425 0.75
      vertex 0.355576 5.37306 0.25
      vertex 0.355576 5.37306 0.75
    endloop
  endfacet
  facet normal 0.995133 -0.0985445 0
    outer loop
      vertex 0.379028 5.40651 0.75
      vertex 0.380859 5.425 0.25
      vertex 0.380859 5.425 0.75
    endloop
  endfacet
  facet normal 0.995133 -0.0985445 0
    outer loop
      vertex 0.380859 5.425 0.25
      vertex 0.379028 5.40651 0.75
      vertex 0.379028 5.40651 0.25
    endloop
  endfacet
  facet normal 0.996523 -0.0833125 0
    outer loop
      vertex 0.377014 5.38242 0.75
      vertex 0.379028 5.40651 0.25
      vertex 0.379028 5.40651 0.75
    endloop
  endfacet
  facet normal 0.996523 -0.0833125 0
    outer loop
      vertex 0.379028 5.40651 0.25
      vertex 0.377014 5.38242 0.75
      vertex 0.377014 5.38242 0.25
    endloop
  endfacet
  facet normal 0.99724 -0.0742475 0
    outer loop
      vertex 0.374802 5.35271 0.75
      vertex 0.377014 5.38242 0.25
      vertex 0.377014 5.38242 0.75
    endloop
  endfacet
  facet normal 0.99724 -0.0742475 0
    outer loop
      vertex 0.377014 5.38242 0.25
      vertex 0.374802 5.35271 0.75
      vertex 0.374802 5.35271 0.25
    endloop
  endfacet
  facet normal 0.997706 -0.0677004 0
    outer loop
      vertex 0.372406 5.3174 0.75
      vertex 0.374802 5.35271 0.25
      vertex 0.374802 5.35271 0.75
    endloop
  endfacet
  facet normal 0.997706 -0.0677004 0
    outer loop
      vertex 0.374802 5.35271 0.25
      vertex 0.372406 5.3174 0.75
      vertex 0.372406 5.3174 0.25
    endloop
  endfacet
  facet normal 0.997998 -0.0632496 0
    outer loop
      vertex 0.369812 5.27647 0.75
      vertex 0.372406 5.3174 0.25
      vertex 0.372406 5.3174 0.75
    endloop
  endfacet
  facet normal 0.997998 -0.0632496 0
    outer loop
      vertex 0.372406 5.3174 0.25
      vertex 0.369812 5.27647 0.75
      vertex 0.369812 5.27647 0.25
    endloop
  endfacet
  facet normal 0.998223 -0.0595887 0
    outer loop
      vertex 0.367035 5.22995 0.75
      vertex 0.369812 5.27647 0.25
      vertex 0.369812 5.27647 0.75
    endloop
  endfacet
  facet normal 0.998223 -0.0595887 0
    outer loop
      vertex 0.369812 5.27647 0.25
      vertex 0.367035 5.22995 0.75
      vertex 0.367035 5.22995 0.25
    endloop
  endfacet
  facet normal 0.998392 -0.056679 0
    outer loop
      vertex 0.364075 5.17781 0.75
      vertex 0.367035 5.22995 0.25
      vertex 0.367035 5.22995 0.75
    endloop
  endfacet
  facet normal 0.998392 -0.056679 0
    outer loop
      vertex 0.367035 5.22995 0.25
      vertex 0.364075 5.17781 0.75
      vertex 0.364075 5.17781 0.25
    endloop
  endfacet
  facet normal 0.99864 -0.0521269 0
    outer loop
      vertex 0.361237 5.12344 0.75
      vertex 0.364075 5.17781 0.25
      vertex 0.364075 5.17781 0.75
    endloop
  endfacet
  facet normal 0.99864 -0.0521269 0
    outer loop
      vertex 0.364075 5.17781 0.25
      vertex 0.361237 5.12344 0.75
      vertex 0.361237 5.12344 0.25
    endloop
  endfacet
  facet normal 0.999001 -0.0446857 0
    outer loop
      vertex 0.358856 5.07021 0.75
      vertex 0.361237 5.12344 0.25
      vertex 0.361237 5.12344 0.75
    endloop
  endfacet
  facet normal 0.999001 -0.0446857 0
    outer loop
      vertex 0.361237 5.12344 0.25
      vertex 0.358856 5.07021 0.75
      vertex 0.358856 5.07021 0.25
    endloop
  endfacet
  facet normal 0.999288 -0.0377249 0
    outer loop
      vertex 0.356888 5.01808 0.75
      vertex 0.358856 5.07021 0.25
      vertex 0.358856 5.07021 0.75
    endloop
  endfacet
  facet normal 0.999288 -0.0377249 0
    outer loop
      vertex 0.358856 5.07021 0.25
      vertex 0.356888 5.01808 0.75
      vertex 0.356888 5.01808 0.25
    endloop
  endfacet
  facet normal 0.999552 -0.029914 0
    outer loop
      vertex 0.355362 4.96709 0.75
      vertex 0.356888 5.01808 0.25
      vertex 0.356888 5.01808 0.75
    endloop
  endfacet
  facet normal 0.999552 -0.029914 0
    outer loop
      vertex 0.356888 5.01808 0.25
      vertex 0.355362 4.96709 0.75
      vertex 0.355362 4.96709 0.25
    endloop
  endfacet
  facet normal 0.999764 -0.021707 0
    outer loop
      vertex 0.354279 4.91721 0.75
      vertex 0.355362 4.96709 0.25
      vertex 0.355362 4.96709 0.75
    endloop
  endfacet
  facet normal 0.999764 -0.021707 0
    outer loop
      vertex 0.355362 4.96709 0.25
      vertex 0.354279 4.91721 0.75
      vertex 0.354279 4.91721 0.25
    endloop
  endfacet
  facet normal 0.999909 -0.0134729 0
    outer loop
      vertex 0.353622 4.86845 0.75
      vertex 0.354279 4.91721 0.25
      vertex 0.354279 4.91721 0.75
    endloop
  endfacet
  facet normal 0.999909 -0.0134729 0
    outer loop
      vertex 0.354279 4.91721 0.25
      vertex 0.353622 4.86845 0.75
      vertex 0.353622 4.86845 0.25
    endloop
  endfacet
  facet normal 0.99999 -0.00447287 0
    outer loop
      vertex 0.353409 4.82083 0.75
      vertex 0.353622 4.86845 0.25
      vertex 0.353622 4.86845 0.75
    endloop
  endfacet
  facet normal 0.99999 -0.00447287 0
    outer loop
      vertex 0.353622 4.86845 0.25
      vertex 0.353409 4.82083 0.75
      vertex 0.353409 4.82083 0.25
    endloop
  endfacet
  facet normal 1 -0 0
    outer loop
      vertex 0.353409 3.41405 0.75
      vertex 0.353409 4.82083 0.25
      vertex 0.353409 4.82083 0.75
    endloop
  endfacet
  facet normal 1 0 0
    outer loop
      vertex 0.353409 4.82083 0.25
      vertex 0.353409 3.41405 0.75
      vertex 0.353409 3.41405 0.25
    endloop
  endfacet
  facet normal 0 -1 0
    outer loop
      vertex -0.903824 3.41405 0.25
      vertex 0.353409 3.41405 0.75
      vertex -0.903824 3.41405 0.75
    endloop
  endfacet
  facet normal 0 -1 -0
    outer loop
      vertex 0.353409 3.41405 0.75
      vertex -0.903824 3.41405 0.25
      vertex 0.353409 3.41405 0.25
    endloop
  endfacet
endsolid OpenSCAD_Model
