solid OpenSCAD_Model
  facet normal 0.187395 0 0.982285
    outer loop
      vertex -0.447641 1.5 4.75655
      vertex -0.225599 -1.5 4.71419
      vertex -0.225599 1.5 4.71419
    endloop
  endfacet
  facet normal 0.187395 0 0.982285
    outer loop
      vertex -0.225599 -1.5 4.71419
      vertex -0.447641 1.5 4.75655
      vertex -0.447641 -1.5 4.75655
    endloop
  endfacet
  facet normal 0.0628192 0 -0.998025
    outer loop
      vertex -0.225599 -1.5 13.2858
      vertex 0 1.5 13.3
      vertex 0 -1.5 13.3
    endloop
  endfacet
  facet normal 0.0628192 0 -0.998025
    outer loop
      vertex 0 1.5 13.3
      vertex -0.225599 -1.5 13.2858
      vertex -0.225599 1.5 13.2858
    endloop
  endfacet
  facet normal -1 0 0
    outer loop
      vertex 1.79645 -1.5 6.38698
      vertex 1.79645 1.5 11.613
      vertex 1.79645 1.5 6.38698
    endloop
  endfacet
  facet normal -1 -0 0
    outer loop
      vertex 1.79645 1.5 11.613
      vertex 1.79645 -1.5 6.38698
      vertex 1.79645 -1.5 11.613
    endloop
  endfacet
  facet normal 0 -1 0
    outer loop
      vertex -3.5 -1.5 14
      vertex 0 -1.5 13.3
      vertex 3.5 -1.5 14
    endloop
  endfacet
  facet normal 0 -1 0
    outer loop
      vertex -3.5 -1.5 14
      vertex -0.225599 -1.5 13.2858
      vertex 0 -1.5 13.3
    endloop
  endfacet
  facet normal 0 -1 0
    outer loop
      vertex -3.5 -1.5 14
      vertex -0.447641 -1.5 13.2434
      vertex -0.225599 -1.5 13.2858
    endloop
  endfacet
  facet normal 0 -1 0
    outer loop
      vertex -3.5 -1.5 14
      vertex -0.662623 -1.5 13.1736
      vertex -0.447641 -1.5 13.2434
    endloop
  endfacet
  facet normal 0 -1 0
    outer loop
      vertex -3.5 -1.5 14
      vertex -0.867156 -1.5 13.0774
      vertex -0.662623 -1.5 13.1736
    endloop
  endfacet
  facet normal 0 -1 0
    outer loop
      vertex -3.5 -1.5 14
      vertex -1.05801 -1.5 12.9562
      vertex -0.867156 -1.5 13.0774
    endloop
  endfacet
  facet normal 0 -1 0
    outer loop
      vertex -3.5 -1.5 14
      vertex -1.23218 -1.5 12.8121
      vertex -1.05801 -1.5 12.9562
    endloop
  endfacet
  facet normal 0 -1 0
    outer loop
      vertex -3.5 -1.5 14
      vertex -1.38692 -1.5 12.6474
      vertex -1.23218 -1.5 12.8121
    endloop
  endfacet
  facet normal 0 -1 0
    outer loop
      vertex -3.5 -1.5 14
      vertex -1.51979 -1.5 12.4645
      vertex -1.38692 -1.5 12.6474
    endloop
  endfacet
  facet normal 0 -1 0
    outer loop
      vertex -3.5 -1.5 14
      vertex -1.62869 -1.5 12.2664
      vertex -1.51979 -1.5 12.4645
    endloop
  endfacet
  facet normal 0 -1 0
    outer loop
      vertex -3.5 -1.5 14
      vertex -1.7119 -1.5 12.0562
      vertex -1.62869 -1.5 12.2664
    endloop
  endfacet
  facet normal 0 -1 0
    outer loop
      vertex -3.5 -1.5 14
      vertex -1.76812 -1.5 11.8373
      vertex -1.7119 -1.5 12.0562
    endloop
  endfacet
  facet normal 0 -1 0
    outer loop
      vertex -3.5 -1.5 14
      vertex -1.79645 -1.5 11.613
      vertex -1.76812 -1.5 11.8373
    endloop
  endfacet
  facet normal 0 -1 0
    outer loop
      vertex -3.5 -1.5 14
      vertex -1.79645 -1.5 6.38698
      vertex -1.79645 -1.5 11.613
    endloop
  endfacet
  facet normal 0 -1 0
    outer loop
      vertex -3.5 -1.5 0
      vertex -1.79645 -1.5 6.38698
      vertex -3.5 -1.5 14
    endloop
  endfacet
  facet normal 0 -1 -0
    outer loop
      vertex -0.225599 -1.5 4.71419
      vertex -3.5 -1.5 0
      vertex 0 -1.5 4.7
    endloop
  endfacet
  facet normal 0 -1 -0
    outer loop
      vertex -0.447641 -1.5 4.75655
      vertex -3.5 -1.5 0
      vertex -0.225599 -1.5 4.71419
    endloop
  endfacet
  facet normal 0 -1 -0
    outer loop
      vertex -0.662623 -1.5 4.8264
      vertex -3.5 -1.5 0
      vertex -0.447641 -1.5 4.75655
    endloop
  endfacet
  facet normal 0 -1 -0
    outer loop
      vertex -0.867156 -1.5 4.92265
      vertex -3.5 -1.5 0
      vertex -0.662623 -1.5 4.8264
    endloop
  endfacet
  facet normal 0 -1 -0
    outer loop
      vertex -1.05801 -1.5 5.04377
      vertex -3.5 -1.5 0
      vertex -0.867156 -1.5 4.92265
    endloop
  endfacet
  facet normal 0 -1 -0
    outer loop
      vertex -1.23218 -1.5 5.18786
      vertex -3.5 -1.5 0
      vertex -1.05801 -1.5 5.04377
    endloop
  endfacet
  facet normal 0 -1 -0
    outer loop
      vertex -1.38692 -1.5 5.35264
      vertex -3.5 -1.5 0
      vertex -1.23218 -1.5 5.18786
    endloop
  endfacet
  facet normal 0 -1 -0
    outer loop
      vertex -1.51979 -1.5 5.53551
      vertex -3.5 -1.5 0
      vertex -1.38692 -1.5 5.35264
    endloop
  endfacet
  facet normal 0 -1 -0
    outer loop
      vertex -1.62869 -1.5 5.7336
      vertex -3.5 -1.5 0
      vertex -1.51979 -1.5 5.53551
    endloop
  endfacet
  facet normal 0 -1 -0
    outer loop
      vertex -1.7119 -1.5 5.94377
      vertex -3.5 -1.5 0
      vertex -1.62869 -1.5 5.7336
    endloop
  endfacet
  facet normal 0 -1 -0
    outer loop
      vertex -1.76812 -1.5 6.16271
      vertex -3.5 -1.5 0
      vertex -1.7119 -1.5 5.94377
    endloop
  endfacet
  facet normal 0 -1 -0
    outer loop
      vertex -1.79645 -1.5 6.38698
      vertex -3.5 -1.5 0
      vertex -1.76812 -1.5 6.16271
    endloop
  endfacet
  facet normal 0 -1 0
    outer loop
      vertex 0.225599 -1.5 13.2858
      vertex 3.5 -1.5 14
      vertex 0 -1.5 13.3
    endloop
  endfacet
  facet normal 0 -1 0
    outer loop
      vertex 0.447641 -1.5 13.2434
      vertex 3.5 -1.5 14
      vertex 0.225599 -1.5 13.2858
    endloop
  endfacet
  facet normal 0 -1 0
    outer loop
      vertex 0.662623 -1.5 13.1736
      vertex 3.5 -1.5 14
      vertex 0.447641 -1.5 13.2434
    endloop
  endfacet
  facet normal 0 -1 0
    outer loop
      vertex 0.867156 -1.5 13.0774
      vertex 3.5 -1.5 14
      vertex 0.662623 -1.5 13.1736
    endloop
  endfacet
  facet normal 0 -1 0
    outer loop
      vertex 1.05801 -1.5 12.9562
      vertex 3.5 -1.5 14
      vertex 0.867156 -1.5 13.0774
    endloop
  endfacet
  facet normal 0 -1 0
    outer loop
      vertex 1.23218 -1.5 12.8121
      vertex 3.5 -1.5 14
      vertex 1.05801 -1.5 12.9562
    endloop
  endfacet
  facet normal 0 -1 0
    outer loop
      vertex 1.38692 -1.5 12.6474
      vertex 3.5 -1.5 14
      vertex 1.23218 -1.5 12.8121
    endloop
  endfacet
  facet normal 0 -1 0
    outer loop
      vertex 1.51979 -1.5 12.4645
      vertex 3.5 -1.5 14
      vertex 1.38692 -1.5 12.6474
    endloop
  endfacet
  facet normal 0 -1 0
    outer loop
      vertex 1.62869 -1.5 12.2664
      vertex 3.5 -1.5 14
      vertex 1.51979 -1.5 12.4645
    endloop
  endfacet
  facet normal 0 -1 0
    outer loop
      vertex 1.7119 -1.5 12.0562
      vertex 3.5 -1.5 14
      vertex 1.62869 -1.5 12.2664
    endloop
  endfacet
  facet normal 0 -1 0
    outer loop
      vertex 1.76812 -1.5 11.8373
      vertex 3.5 -1.5 14
      vertex 1.7119 -1.5 12.0562
    endloop
  endfacet
  facet normal 0 -1 0
    outer loop
      vertex 1.79645 -1.5 11.613
      vertex 3.5 -1.5 14
      vertex 1.76812 -1.5 11.8373
    endloop
  endfacet
  facet normal 0 -1 0
    outer loop
      vertex 1.79645 -1.5 6.38698
      vertex 3.5 -1.5 14
      vertex 1.79645 -1.5 11.613
    endloop
  endfacet
  facet normal 0 -1 0
    outer loop
      vertex 3.5 -1.5 0
      vertex 1.79645 -1.5 6.38698
      vertex 1.76812 -1.5 6.16271
    endloop
  endfacet
  facet normal 0 -1 0
    outer loop
      vertex 3.5 -1.5 0
      vertex 0 -1.5 4.7
      vertex -3.5 -1.5 0
    endloop
  endfacet
  facet normal 0 -1 0
    outer loop
      vertex 0 -1.5 4.7
      vertex 3.5 -1.5 0
      vertex 0.225599 -1.5 4.71419
    endloop
  endfacet
  facet normal 0 -1 0
    outer loop
      vertex 0.225599 -1.5 4.71419
      vertex 3.5 -1.5 0
      vertex 0.447641 -1.5 4.75655
    endloop
  endfacet
  facet normal 0 -1 0
    outer loop
      vertex 0.447641 -1.5 4.75655
      vertex 3.5 -1.5 0
      vertex 0.662623 -1.5 4.8264
    endloop
  endfacet
  facet normal 0 -1 0
    outer loop
      vertex 0.662623 -1.5 4.8264
      vertex 3.5 -1.5 0
      vertex 0.867156 -1.5 4.92265
    endloop
  endfacet
  facet normal 0 -1 0
    outer loop
      vertex 0.867156 -1.5 4.92265
      vertex 3.5 -1.5 0
      vertex 1.05801 -1.5 5.04377
    endloop
  endfacet
  facet normal 0 -1 0
    outer loop
      vertex 1.05801 -1.5 5.04377
      vertex 3.5 -1.5 0
      vertex 1.23218 -1.5 5.18786
    endloop
  endfacet
  facet normal 0 -1 0
    outer loop
      vertex 1.79645 -1.5 6.38698
      vertex 3.5 -1.5 0
      vertex 3.5 -1.5 14
    endloop
  endfacet
  facet normal 0 -1 0
    outer loop
      vertex 1.7119 -1.5 5.94377
      vertex 3.5 -1.5 0
      vertex 1.76812 -1.5 6.16271
    endloop
  endfacet
  facet normal 0 -1 0
    outer loop
      vertex 1.62869 -1.5 5.7336
      vertex 3.5 -1.5 0
      vertex 1.7119 -1.5 5.94377
    endloop
  endfacet
  facet normal 0 -1 0
    outer loop
      vertex 1.51979 -1.5 5.53551
      vertex 3.5 -1.5 0
      vertex 1.62869 -1.5 5.7336
    endloop
  endfacet
  facet normal 0 -1 0
    outer loop
      vertex 1.38692 -1.5 5.35264
      vertex 3.5 -1.5 0
      vertex 1.51979 -1.5 5.53551
    endloop
  endfacet
  facet normal 0 -1 0
    outer loop
      vertex 1.23218 -1.5 5.18786
      vertex 3.5 -1.5 0
      vertex 1.38692 -1.5 5.35264
    endloop
  endfacet
  facet normal 1 -0 0
    outer loop
      vertex -1.79645 -1.5 11.613
      vertex -1.79645 1.5 6.38698
      vertex -1.79645 1.5 11.613
    endloop
  endfacet
  facet normal 1 0 0
    outer loop
      vertex -1.79645 1.5 6.38698
      vertex -1.79645 -1.5 11.613
      vertex -1.79645 -1.5 6.38698
    endloop
  endfacet
  facet normal 0 1 0
    outer loop
      vertex 3.5 1.5 14
      vertex 0 1.5 13.3
      vertex -3.5 1.5 14
    endloop
  endfacet
  facet normal 0 1 0
    outer loop
      vertex 3.5 1.5 14
      vertex 0.225599 1.5 13.2858
      vertex 0 1.5 13.3
    endloop
  endfacet
  facet normal 0 1 0
    outer loop
      vertex 3.5 1.5 14
      vertex 0.447641 1.5 13.2434
      vertex 0.225599 1.5 13.2858
    endloop
  endfacet
  facet normal 0 1 0
    outer loop
      vertex 3.5 1.5 14
      vertex 0.662623 1.5 13.1736
      vertex 0.447641 1.5 13.2434
    endloop
  endfacet
  facet normal 0 1 0
    outer loop
      vertex 3.5 1.5 14
      vertex 0.867156 1.5 13.0774
      vertex 0.662623 1.5 13.1736
    endloop
  endfacet
  facet normal 0 1 0
    outer loop
      vertex 3.5 1.5 14
      vertex 1.05801 1.5 12.9562
      vertex 0.867156 1.5 13.0774
    endloop
  endfacet
  facet normal 0 1 0
    outer loop
      vertex 3.5 1.5 14
      vertex 1.23218 1.5 12.8121
      vertex 1.05801 1.5 12.9562
    endloop
  endfacet
  facet normal 0 1 0
    outer loop
      vertex 3.5 1.5 14
      vertex 1.38692 1.5 12.6474
      vertex 1.23218 1.5 12.8121
    endloop
  endfacet
  facet normal 0 1 0
    outer loop
      vertex 3.5 1.5 14
      vertex 1.51979 1.5 12.4645
      vertex 1.38692 1.5 12.6474
    endloop
  endfacet
  facet normal 0 1 0
    outer loop
      vertex 3.5 1.5 14
      vertex 1.62869 1.5 12.2664
      vertex 1.51979 1.5 12.4645
    endloop
  endfacet
  facet normal 0 1 0
    outer loop
      vertex 3.5 1.5 14
      vertex 1.7119 1.5 12.0562
      vertex 1.62869 1.5 12.2664
    endloop
  endfacet
  facet normal 0 1 0
    outer loop
      vertex 3.5 1.5 14
      vertex 1.76812 1.5 11.8373
      vertex 1.7119 1.5 12.0562
    endloop
  endfacet
  facet normal 0 1 0
    outer loop
      vertex 3.5 1.5 14
      vertex 1.79645 1.5 11.613
      vertex 1.76812 1.5 11.8373
    endloop
  endfacet
  facet normal 0 1 0
    outer loop
      vertex 3.5 1.5 14
      vertex 1.79645 1.5 6.38698
      vertex 1.79645 1.5 11.613
    endloop
  endfacet
  facet normal 0 1 -0
    outer loop
      vertex 3.5 1.5 0
      vertex 1.79645 1.5 6.38698
      vertex 3.5 1.5 14
    endloop
  endfacet
  facet normal 0 1 0
    outer loop
      vertex 0.225599 1.5 4.71419
      vertex 3.5 1.5 0
      vertex 0 1.5 4.7
    endloop
  endfacet
  facet normal 0 1 0
    outer loop
      vertex 0.447641 1.5 4.75655
      vertex 3.5 1.5 0
      vertex 0.225599 1.5 4.71419
    endloop
  endfacet
  facet normal 0 1 0
    outer loop
      vertex 0.662623 1.5 4.8264
      vertex 3.5 1.5 0
      vertex 0.447641 1.5 4.75655
    endloop
  endfacet
  facet normal 0 1 0
    outer loop
      vertex 0.867156 1.5 4.92265
      vertex 3.5 1.5 0
      vertex 0.662623 1.5 4.8264
    endloop
  endfacet
  facet normal 0 1 0
    outer loop
      vertex 1.05801 1.5 5.04377
      vertex 3.5 1.5 0
      vertex 0.867156 1.5 4.92265
    endloop
  endfacet
  facet normal 0 1 0
    outer loop
      vertex 1.23218 1.5 5.18786
      vertex 3.5 1.5 0
      vertex 1.05801 1.5 5.04377
    endloop
  endfacet
  facet normal 0 1 0
    outer loop
      vertex 1.38692 1.5 5.35264
      vertex 3.5 1.5 0
      vertex 1.23218 1.5 5.18786
    endloop
  endfacet
  facet normal 0 1 0
    outer loop
      vertex 1.51979 1.5 5.53551
      vertex 3.5 1.5 0
      vertex 1.38692 1.5 5.35264
    endloop
  endfacet
  facet normal 0 1 0
    outer loop
      vertex 1.62869 1.5 5.7336
      vertex 3.5 1.5 0
      vertex 1.51979 1.5 5.53551
    endloop
  endfacet
  facet normal 0 1 0
    outer loop
      vertex 1.7119 1.5 5.94377
      vertex 3.5 1.5 0
      vertex 1.62869 1.5 5.7336
    endloop
  endfacet
  facet normal 0 1 0
    outer loop
      vertex 1.76812 1.5 6.16271
      vertex 3.5 1.5 0
      vertex 1.7119 1.5 5.94377
    endloop
  endfacet
  facet normal 0 1 0
    outer loop
      vertex 1.79645 1.5 6.38698
      vertex 3.5 1.5 0
      vertex 1.76812 1.5 6.16271
    endloop
  endfacet
  facet normal 0 1 -0
    outer loop
      vertex -0.225599 1.5 13.2858
      vertex -3.5 1.5 14
      vertex 0 1.5 13.3
    endloop
  endfacet
  facet normal 0 1 -0
    outer loop
      vertex -0.447641 1.5 13.2434
      vertex -3.5 1.5 14
      vertex -0.225599 1.5 13.2858
    endloop
  endfacet
  facet normal 0 1 -0
    outer loop
      vertex -0.662623 1.5 13.1736
      vertex -3.5 1.5 14
      vertex -0.447641 1.5 13.2434
    endloop
  endfacet
  facet normal 0 1 -0
    outer loop
      vertex -0.867156 1.5 13.0774
      vertex -3.5 1.5 14
      vertex -0.662623 1.5 13.1736
    endloop
  endfacet
  facet normal 0 1 -0
    outer loop
      vertex -1.05801 1.5 12.9562
      vertex -3.5 1.5 14
      vertex -0.867156 1.5 13.0774
    endloop
  endfacet
  facet normal 0 1 -0
    outer loop
      vertex -1.23218 1.5 12.8121
      vertex -3.5 1.5 14
      vertex -1.05801 1.5 12.9562
    endloop
  endfacet
  facet normal 0 1 -0
    outer loop
      vertex -1.38692 1.5 12.6474
      vertex -3.5 1.5 14
      vertex -1.23218 1.5 12.8121
    endloop
  endfacet
  facet normal 0 1 -0
    outer loop
      vertex -1.51979 1.5 12.4645
      vertex -3.5 1.5 14
      vertex -1.38692 1.5 12.6474
    endloop
  endfacet
  facet normal 0 1 -0
    outer loop
      vertex -1.62869 1.5 12.2664
      vertex -3.5 1.5 14
      vertex -1.51979 1.5 12.4645
    endloop
  endfacet
  facet normal 0 1 -0
    outer loop
      vertex -1.7119 1.5 12.0562
      vertex -3.5 1.5 14
      vertex -1.62869 1.5 12.2664
    endloop
  endfacet
  facet normal 0 1 -0
    outer loop
      vertex -1.76812 1.5 11.8373
      vertex -3.5 1.5 14
      vertex -1.7119 1.5 12.0562
    endloop
  endfacet
  facet normal 0 1 -0
    outer loop
      vertex -1.79645 1.5 11.613
      vertex -3.5 1.5 14
      vertex -1.76812 1.5 11.8373
    endloop
  endfacet
  facet normal 0 1 -0
    outer loop
      vertex -1.79645 1.5 6.38698
      vertex -3.5 1.5 14
      vertex -1.79645 1.5 11.613
    endloop
  endfacet
  facet normal 0 1 0
    outer loop
      vertex -3.5 1.5 0
      vertex -1.79645 1.5 6.38698
      vertex -1.76812 1.5 6.16271
    endloop
  endfacet
  facet normal 0 1 0
    outer loop
      vertex -3.5 1.5 0
      vertex 0 1.5 4.7
      vertex 3.5 1.5 0
    endloop
  endfacet
  facet normal 0 1 0
    outer loop
      vertex 0 1.5 4.7
      vertex -3.5 1.5 0
      vertex -0.225599 1.5 4.71419
    endloop
  endfacet
  facet normal 0 1 0
    outer loop
      vertex -0.225599 1.5 4.71419
      vertex -3.5 1.5 0
      vertex -0.447641 1.5 4.75655
    endloop
  endfacet
  facet normal 0 1 0
    outer loop
      vertex -0.447641 1.5 4.75655
      vertex -3.5 1.5 0
      vertex -0.662623 1.5 4.8264
    endloop
  endfacet
  facet normal 0 1 0
    outer loop
      vertex -0.662623 1.5 4.8264
      vertex -3.5 1.5 0
      vertex -0.867156 1.5 4.92265
    endloop
  endfacet
  facet normal 0 1 0
    outer loop
      vertex -0.867156 1.5 4.92265
      vertex -3.5 1.5 0
      vertex -1.05801 1.5 5.04377
    endloop
  endfacet
  facet normal 0 1 0
    outer loop
      vertex -1.05801 1.5 5.04377
      vertex -3.5 1.5 0
      vertex -1.23218 1.5 5.18786
    endloop
  endfacet
  facet normal 0 1 0
    outer loop
      vertex -1.79645 1.5 6.38698
      vertex -3.5 1.5 0
      vertex -3.5 1.5 14
    endloop
  endfacet
  facet normal 0 1 0
    outer loop
      vertex -1.7119 1.5 5.94377
      vertex -3.5 1.5 0
      vertex -1.76812 1.5 6.16271
    endloop
  endfacet
  facet normal 0 1 0
    outer loop
      vertex -1.62869 1.5 5.7336
      vertex -3.5 1.5 0
      vertex -1.7119 1.5 5.94377
    endloop
  endfacet
  facet normal 0 1 0
    outer loop
      vertex -1.51979 1.5 5.53551
      vertex -3.5 1.5 0
      vertex -1.62869 1.5 5.7336
    endloop
  endfacet
  facet normal 0 1 0
    outer loop
      vertex -1.38692 1.5 5.35264
      vertex -3.5 1.5 0
      vertex -1.51979 1.5 5.53551
    endloop
  endfacet
  facet normal 0 1 0
    outer loop
      vertex -1.23218 1.5 5.18786
      vertex -3.5 1.5 0
      vertex -1.38692 1.5 5.35264
    endloop
  endfacet
  facet normal -0.309009 0 0.951059
    outer loop
      vertex 0.447641 1.5 4.75655
      vertex 0.662623 -1.5 4.8264
      vertex 0.662623 1.5 4.8264
    endloop
  endfacet
  facet normal -0.309009 0 0.951059
    outer loop
      vertex 0.662623 -1.5 4.8264
      vertex 0.447641 1.5 4.75655
      vertex 0.447641 -1.5 4.75655
    endloop
  endfacet
  facet normal 0.968577 -0 0.248714
    outer loop
      vertex -1.76812 -1.5 6.16271
      vertex -1.7119 1.5 5.94377
      vertex -1.76812 1.5 6.16271
    endloop
  endfacet
  facet normal 0.968577 0 0.248714
    outer loop
      vertex -1.7119 1.5 5.94377
      vertex -1.76812 -1.5 6.16271
      vertex -1.7119 -1.5 5.94377
    endloop
  endfacet
  facet normal 0.7288 0 -0.684727
    outer loop
      vertex -1.23218 -1.5 12.8121
      vertex -1.38692 1.5 12.6474
      vertex -1.23218 1.5 12.8121
    endloop
  endfacet
  facet normal 0.7288 0 -0.684727
    outer loop
      vertex -1.38692 1.5 12.6474
      vertex -1.23218 -1.5 12.8121
      vertex -1.38692 -1.5 12.6474
    endloop
  endfacet
  facet normal 0.992118 0 -0.125309
    outer loop
      vertex -1.76812 -1.5 11.8373
      vertex -1.79645 1.5 11.613
      vertex -1.76812 1.5 11.8373
    endloop
  endfacet
  facet normal 0.992118 0 -0.125309
    outer loop
      vertex -1.79645 1.5 11.613
      vertex -1.76812 -1.5 11.8373
      vertex -1.79645 -1.5 11.613
    endloop
  endfacet
  facet normal 0.0627752 0 0.998028
    outer loop
      vertex -0.225599 1.5 4.71419
      vertex 0 -1.5 4.7
      vertex 0 1.5 4.7
    endloop
  endfacet
  facet normal 0.0627752 0 0.998028
    outer loop
      vertex 0 -1.5 4.7
      vertex -0.225599 1.5 4.71419
      vertex -0.225599 -1.5 4.71419
    endloop
  endfacet
  facet normal 0.425794 0 0.90482
    outer loop
      vertex -0.867156 1.5 4.92265
      vertex -0.662623 -1.5 4.8264
      vertex -0.662623 1.5 4.8264
    endloop
  endfacet
  facet normal 0.425794 0 0.90482
    outer loop
      vertex -0.662623 -1.5 4.8264
      vertex -0.867156 1.5 4.92265
      vertex -0.867156 -1.5 4.92265
    endloop
  endfacet
  facet normal 0.425613 0 -0.904905
    outer loop
      vertex -0.867156 -1.5 13.0774
      vertex -0.662623 1.5 13.1736
      vertex -0.662623 -1.5 13.1736
    endloop
  endfacet
  facet normal 0.425613 0 -0.904905
    outer loop
      vertex -0.662623 1.5 13.1736
      vertex -0.867156 -1.5 13.0774
      vertex -0.867156 1.5 13.0774
    endloop
  endfacet
  facet normal 0.992116 -0 0.125325
    outer loop
      vertex -1.79645 -1.5 6.38698
      vertex -1.76812 1.5 6.16271
      vertex -1.79645 1.5 6.38698
    endloop
  endfacet
  facet normal 0.992116 0 0.125325
    outer loop
      vertex -1.76812 1.5 6.16271
      vertex -1.79645 -1.5 6.38698
      vertex -1.76812 -1.5 6.16271
    endloop
  endfacet
  facet normal 0.929798 0 -0.368071
    outer loop
      vertex -1.62869 -1.5 12.2664
      vertex -1.7119 1.5 12.0562
      vertex -1.62869 1.5 12.2664
    endloop
  endfacet
  facet normal 0.929798 0 -0.368071
    outer loop
      vertex -1.7119 1.5 12.0562
      vertex -1.62869 -1.5 12.2664
      vertex -1.7119 -1.5 12.0562
    endloop
  endfacet
  facet normal 0.53608 0 -0.844167
    outer loop
      vertex -1.05801 -1.5 12.9562
      vertex -0.867156 1.5 13.0774
      vertex -0.867156 -1.5 13.0774
    endloop
  endfacet
  facet normal 0.53608 0 -0.844167
    outer loop
      vertex -0.867156 1.5 13.0774
      vertex -1.05801 -1.5 12.9562
      vertex -1.05801 1.5 12.9562
    endloop
  endfacet
  facet normal 0.308809 0 -0.951124
    outer loop
      vertex -0.662623 -1.5 13.1736
      vertex -0.447641 1.5 13.2434
      vertex -0.447641 -1.5 13.2434
    endloop
  endfacet
  facet normal 0.308809 0 -0.951124
    outer loop
      vertex -0.447641 1.5 13.2434
      vertex -0.662623 -1.5 13.1736
      vertex -0.662623 1.5 13.1736
    endloop
  endfacet
  facet normal -0.968566 0 -0.248756
    outer loop
      vertex 1.76812 -1.5 11.8373
      vertex 1.7119 1.5 12.0562
      vertex 1.76812 1.5 11.8373
    endloop
  endfacet
  facet normal -0.968566 -0 -0.248756
    outer loop
      vertex 1.7119 1.5 12.0562
      vertex 1.76812 -1.5 11.8373
      vertex 1.7119 -1.5 12.0562
    endloop
  endfacet
  facet normal -0.637461 0 -0.770483
    outer loop
      vertex 1.05801 -1.5 12.9562
      vertex 1.23218 1.5 12.8121
      vertex 1.23218 -1.5 12.8121
    endloop
  endfacet
  facet normal -0.637461 0 -0.770483
    outer loop
      vertex 1.23218 1.5 12.8121
      vertex 1.05801 -1.5 12.9562
      vertex 1.05801 1.5 12.9562
    endloop
  endfacet
  facet normal -0.992116 0 0.125325
    outer loop
      vertex 1.76812 -1.5 6.16271
      vertex 1.79645 1.5 6.38698
      vertex 1.76812 1.5 6.16271
    endloop
  endfacet
  facet normal -0.992116 0 0.125325
    outer loop
      vertex 1.79645 1.5 6.38698
      vertex 1.76812 -1.5 6.16271
      vertex 1.79645 -1.5 6.38698
    endloop
  endfacet
  facet normal -0.637435 0 0.770504
    outer loop
      vertex 1.05801 1.5 5.04377
      vertex 1.23218 -1.5 5.18786
      vertex 1.23218 1.5 5.18786
    endloop
  endfacet
  facet normal -0.637435 0 0.770504
    outer loop
      vertex 1.23218 -1.5 5.18786
      vertex 1.05801 1.5 5.04377
      vertex 1.05801 -1.5 5.04377
    endloop
  endfacet
  facet normal -0.0627752 0 0.998028
    outer loop
      vertex 0 1.5 4.7
      vertex 0.225599 -1.5 4.71419
      vertex 0.225599 1.5 4.71419
    endloop
  endfacet
  facet normal -0.0627752 0 0.998028
    outer loop
      vertex 0.225599 -1.5 4.71419
      vertex 0 1.5 4.7
      vertex 0 -1.5 4.7
    endloop
  endfacet
  facet normal 0.92978 -0 0.368116
    outer loop
      vertex -1.7119 -1.5 5.94377
      vertex -1.62869 1.5 5.7336
      vertex -1.7119 1.5 5.94377
    endloop
  endfacet
  facet normal 0.92978 0 0.368116
    outer loop
      vertex -1.62869 1.5 5.7336
      vertex -1.7119 -1.5 5.94377
      vertex -1.62869 -1.5 5.7336
    endloop
  endfacet
  facet normal 0.809002 -0 0.587806
    outer loop
      vertex -1.51979 -1.5 5.53551
      vertex -1.38692 1.5 5.35264
      vertex -1.51979 1.5 5.53551
    endloop
  endfacet
  facet normal 0.809002 0 0.587806
    outer loop
      vertex -1.38692 1.5 5.35264
      vertex -1.51979 -1.5 5.53551
      vertex -1.38692 -1.5 5.35264
    endloop
  endfacet
  facet normal 0.809048 0 -0.587743
    outer loop
      vertex -1.38692 -1.5 12.6474
      vertex -1.51979 1.5 12.4645
      vertex -1.38692 1.5 12.6474
    endloop
  endfacet
  facet normal 0.809048 0 -0.587743
    outer loop
      vertex -1.51979 1.5 12.4645
      vertex -1.38692 -1.5 12.6474
      vertex -1.51979 -1.5 12.4645
    endloop
  endfacet
  facet normal 0.637461 0 -0.770483
    outer loop
      vertex -1.23218 -1.5 12.8121
      vertex -1.05801 1.5 12.9562
      vertex -1.05801 -1.5 12.9562
    endloop
  endfacet
  facet normal 0.637461 0 -0.770483
    outer loop
      vertex -1.05801 1.5 12.9562
      vertex -1.23218 -1.5 12.8121
      vertex -1.23218 1.5 12.8121
    endloop
  endfacet
  facet normal -0.992118 0 -0.125309
    outer loop
      vertex 1.79645 -1.5 11.613
      vertex 1.76812 1.5 11.8373
      vertex 1.79645 1.5 11.613
    endloop
  endfacet
  facet normal -0.992118 -0 -0.125309
    outer loop
      vertex 1.76812 1.5 11.8373
      vertex 1.79645 -1.5 11.613
      vertex 1.76812 -1.5 11.8373
    endloop
  endfacet
  facet normal -0.809048 0 -0.587743
    outer loop
      vertex 1.51979 -1.5 12.4645
      vertex 1.38692 1.5 12.6474
      vertex 1.51979 1.5 12.4645
    endloop
  endfacet
  facet normal -0.809048 -0 -0.587743
    outer loop
      vertex 1.38692 1.5 12.6474
      vertex 1.51979 -1.5 12.4645
      vertex 1.38692 -1.5 12.6474
    endloop
  endfacet
  facet normal -0.7288 0 -0.684727
    outer loop
      vertex 1.38692 -1.5 12.6474
      vertex 1.23218 1.5 12.8121
      vertex 1.38692 1.5 12.6474
    endloop
  endfacet
  facet normal -0.7288 -0 -0.684727
    outer loop
      vertex 1.23218 1.5 12.8121
      vertex 1.38692 -1.5 12.6474
      vertex 1.23218 -1.5 12.8121
    endloop
  endfacet
  facet normal -0.0628192 0 -0.998025
    outer loop
      vertex 0 -1.5 13.3
      vertex 0.225599 1.5 13.2858
      vertex 0.225599 -1.5 13.2858
    endloop
  endfacet
  facet normal -0.0628192 0 -0.998025
    outer loop
      vertex 0.225599 1.5 13.2858
      vertex 0 -1.5 13.3
      vertex 0 1.5 13.3
    endloop
  endfacet
  facet normal -0.809002 0 0.587806
    outer loop
      vertex 1.38692 -1.5 5.35264
      vertex 1.51979 1.5 5.53551
      vertex 1.38692 1.5 5.35264
    endloop
  endfacet
  facet normal -0.809002 0 0.587806
    outer loop
      vertex 1.51979 1.5 5.53551
      vertex 1.38692 -1.5 5.35264
      vertex 1.51979 -1.5 5.53551
    endloop
  endfacet
  facet normal -0.728966 0 0.68455
    outer loop
      vertex 1.23218 -1.5 5.18786
      vertex 1.38692 1.5 5.35264
      vertex 1.23218 1.5 5.18786
    endloop
  endfacet
  facet normal -0.728966 0 0.68455
    outer loop
      vertex 1.38692 1.5 5.35264
      vertex 1.23218 -1.5 5.18786
      vertex 1.38692 -1.5 5.35264
    endloop
  endfacet
  facet normal -0.425794 0 0.90482
    outer loop
      vertex 0.662623 1.5 4.8264
      vertex 0.867156 -1.5 4.92265
      vertex 0.867156 1.5 4.92265
    endloop
  endfacet
  facet normal -0.425794 0 0.90482
    outer loop
      vertex 0.867156 -1.5 4.92265
      vertex 0.662623 1.5 4.8264
      vertex 0.662623 -1.5 4.8264
    endloop
  endfacet
  facet normal -0.535828 0 0.844327
    outer loop
      vertex 0.867156 1.5 4.92265
      vertex 1.05801 -1.5 5.04377
      vertex 1.05801 1.5 5.04377
    endloop
  endfacet
  facet normal -0.535828 0 0.844327
    outer loop
      vertex 1.05801 -1.5 5.04377
      vertex 0.867156 1.5 4.92265
      vertex 0.867156 -1.5 4.92265
    endloop
  endfacet
  facet normal -0.187395 0 0.982285
    outer loop
      vertex 0.225599 1.5 4.71419
      vertex 0.447641 -1.5 4.75655
      vertex 0.447641 1.5 4.75655
    endloop
  endfacet
  facet normal -0.187395 0 0.982285
    outer loop
      vertex 0.447641 -1.5 4.75655
      vertex 0.225599 1.5 4.71419
      vertex 0.225599 -1.5 4.71419
    endloop
  endfacet
  facet normal 0.309009 0 0.951059
    outer loop
      vertex -0.662623 1.5 4.8264
      vertex -0.447641 -1.5 4.75655
      vertex -0.447641 1.5 4.75655
    endloop
  endfacet
  facet normal 0.309009 0 0.951059
    outer loop
      vertex -0.447641 -1.5 4.75655
      vertex -0.662623 1.5 4.8264
      vertex -0.662623 -1.5 4.8264
    endloop
  endfacet
  facet normal 0.535828 0 0.844327
    outer loop
      vertex -1.05801 1.5 5.04377
      vertex -0.867156 -1.5 4.92265
      vertex -0.867156 1.5 4.92265
    endloop
  endfacet
  facet normal 0.535828 0 0.844327
    outer loop
      vertex -0.867156 -1.5 4.92265
      vertex -1.05801 1.5 5.04377
      vertex -1.05801 -1.5 5.04377
    endloop
  endfacet
  facet normal 0.637435 0 0.770504
    outer loop
      vertex -1.23218 1.5 5.18786
      vertex -1.05801 -1.5 5.04377
      vertex -1.05801 1.5 5.04377
    endloop
  endfacet
  facet normal 0.637435 0 0.770504
    outer loop
      vertex -1.05801 -1.5 5.04377
      vertex -1.23218 1.5 5.18786
      vertex -1.23218 -1.5 5.18786
    endloop
  endfacet
  facet normal 0.876308 -0 0.481751
    outer loop
      vertex -1.62869 -1.5 5.7336
      vertex -1.51979 1.5 5.53551
      vertex -1.62869 1.5 5.7336
    endloop
  endfacet
  facet normal 0.876308 0 0.481751
    outer loop
      vertex -1.51979 1.5 5.53551
      vertex -1.62869 -1.5 5.7336
      vertex -1.51979 -1.5 5.53551
    endloop
  endfacet
  facet normal 0.728966 -0 0.68455
    outer loop
      vertex -1.38692 -1.5 5.35264
      vertex -1.23218 1.5 5.18786
      vertex -1.38692 1.5 5.35264
    endloop
  endfacet
  facet normal 0.728966 0 0.68455
    outer loop
      vertex -1.23218 1.5 5.18786
      vertex -1.38692 -1.5 5.35264
      vertex -1.23218 -1.5 5.18786
    endloop
  endfacet
  facet normal 0.968566 0 -0.248756
    outer loop
      vertex -1.7119 -1.5 12.0562
      vertex -1.76812 1.5 11.8373
      vertex -1.7119 1.5 12.0562
    endloop
  endfacet
  facet normal 0.968566 0 -0.248756
    outer loop
      vertex -1.76812 1.5 11.8373
      vertex -1.7119 -1.5 12.0562
      vertex -1.76812 -1.5 11.8373
    endloop
  endfacet
  facet normal 0.876319 0 -0.481732
    outer loop
      vertex -1.51979 -1.5 12.4645
      vertex -1.62869 1.5 12.2664
      vertex -1.51979 1.5 12.4645
    endloop
  endfacet
  facet normal 0.876319 0 -0.481732
    outer loop
      vertex -1.62869 1.5 12.2664
      vertex -1.51979 -1.5 12.4645
      vertex -1.62869 -1.5 12.2664
    endloop
  endfacet
  facet normal 0.187566 0 -0.982252
    outer loop
      vertex -0.447641 -1.5 13.2434
      vertex -0.225599 1.5 13.2858
      vertex -0.225599 -1.5 13.2858
    endloop
  endfacet
  facet normal 0.187566 0 -0.982252
    outer loop
      vertex -0.225599 1.5 13.2858
      vertex -0.447641 -1.5 13.2434
      vertex -0.447641 1.5 13.2434
    endloop
  endfacet
  facet normal -0.876319 0 -0.481732
    outer loop
      vertex 1.62869 -1.5 12.2664
      vertex 1.51979 1.5 12.4645
      vertex 1.62869 1.5 12.2664
    endloop
  endfacet
  facet normal -0.876319 -0 -0.481732
    outer loop
      vertex 1.51979 1.5 12.4645
      vertex 1.62869 -1.5 12.2664
      vertex 1.51979 -1.5 12.4645
    endloop
  endfacet
  facet normal -0.53608 0 -0.844167
    outer loop
      vertex 0.867156 -1.5 13.0774
      vertex 1.05801 1.5 12.9562
      vertex 1.05801 -1.5 12.9562
    endloop
  endfacet
  facet normal -0.53608 0 -0.844167
    outer loop
      vertex 1.05801 1.5 12.9562
      vertex 0.867156 -1.5 13.0774
      vertex 0.867156 1.5 13.0774
    endloop
  endfacet
  facet normal -0.308809 0 -0.951124
    outer loop
      vertex 0.447641 -1.5 13.2434
      vertex 0.662623 1.5 13.1736
      vertex 0.662623 -1.5 13.1736
    endloop
  endfacet
  facet normal -0.308809 0 -0.951124
    outer loop
      vertex 0.662623 1.5 13.1736
      vertex 0.447641 -1.5 13.2434
      vertex 0.447641 1.5 13.2434
    endloop
  endfacet
  facet normal -0.187566 0 -0.982252
    outer loop
      vertex 0.225599 -1.5 13.2858
      vertex 0.447641 1.5 13.2434
      vertex 0.447641 -1.5 13.2434
    endloop
  endfacet
  facet normal -0.187566 0 -0.982252
    outer loop
      vertex 0.447641 1.5 13.2434
      vertex 0.225599 -1.5 13.2858
      vertex 0.225599 1.5 13.2858
    endloop
  endfacet
  facet normal -0.92978 0 0.368116
    outer loop
      vertex 1.62869 -1.5 5.7336
      vertex 1.7119 1.5 5.94377
      vertex 1.62869 1.5 5.7336
    endloop
  endfacet
  facet normal -0.92978 0 0.368116
    outer loop
      vertex 1.7119 1.5 5.94377
      vertex 1.62869 -1.5 5.7336
      vertex 1.7119 -1.5 5.94377
    endloop
  endfacet
  facet normal -0.876308 0 0.481751
    outer loop
      vertex 1.51979 -1.5 5.53551
      vertex 1.62869 1.5 5.7336
      vertex 1.51979 1.5 5.53551
    endloop
  endfacet
  facet normal -0.876308 0 0.481751
    outer loop
      vertex 1.62869 1.5 5.7336
      vertex 1.51979 -1.5 5.53551
      vertex 1.62869 -1.5 5.7336
    endloop
  endfacet
  facet normal -0.968577 0 0.248714
    outer loop
      vertex 1.7119 -1.5 5.94377
      vertex 1.76812 1.5 6.16271
      vertex 1.7119 1.5 5.94377
    endloop
  endfacet
  facet normal -0.968577 0 0.248714
    outer loop
      vertex 1.76812 1.5 6.16271
      vertex 1.7119 -1.5 5.94377
      vertex 1.76812 -1.5 6.16271
    endloop
  endfacet
  facet normal -0.929798 0 -0.368071
    outer loop
      vertex 1.7119 -1.5 12.0562
      vertex 1.62869 1.5 12.2664
      vertex 1.7119 1.5 12.0562
    endloop
  endfacet
  facet normal -0.929798 -0 -0.368071
    outer loop
      vertex 1.62869 1.5 12.2664
      vertex 1.7119 -1.5 12.0562
      vertex 1.62869 -1.5 12.2664
    endloop
  endfacet
  facet normal -0.425613 0 -0.904905
    outer loop
      vertex 0.662623 -1.5 13.1736
      vertex 0.867156 1.5 13.0774
      vertex 0.867156 -1.5 13.0774
    endloop
  endfacet
  facet normal -0.425613 0 -0.904905
    outer loop
      vertex 0.867156 1.5 13.0774
      vertex 0.662623 -1.5 13.1736
      vertex 0.662623 1.5 13.1736
    endloop
  endfacet
  facet normal -1 0 0
    outer loop
      vertex -3.5 -1.5 0
      vertex -3.5 1.5 14
      vertex -3.5 1.5 0
    endloop
  endfacet
  facet normal -1 -0 0
    outer loop
      vertex -3.5 1.5 14
      vertex -3.5 -1.5 0
      vertex -3.5 -1.5 14
    endloop
  endfacet
  facet normal -0 0 1
    outer loop
      vertex -3.5 1.5 14
      vertex 3.5 -1.5 14
      vertex 3.5 1.5 14
    endloop
  endfacet
  facet normal 0 0 1
    outer loop
      vertex 3.5 -1.5 14
      vertex -3.5 1.5 14
      vertex -3.5 -1.5 14
    endloop
  endfacet
  facet normal 1 -0 0
    outer loop
      vertex 3.5 -1.5 14
      vertex 3.5 1.5 0
      vertex 3.5 1.5 14
    endloop
  endfacet
  facet normal 1 0 0
    outer loop
      vertex 3.5 1.5 0
      vertex 3.5 -1.5 14
      vertex 3.5 -1.5 0
    endloop
  endfacet
  facet normal 0 0 -1
    outer loop
      vertex -3.5 -1.5 0
      vertex 3.5 1.5 0
      vertex 3.5 -1.5 0
    endloop
  endfacet
  facet normal -0 0 -1
    outer loop
      vertex 3.5 1.5 0
      vertex -3.5 -1.5 0
      vertex -3.5 1.5 0
    endloop
  endfacet
endsolid OpenSCAD_Model
